<?xml version="1.0" standalone="no"?><!DOCTYPE svg><svg xmlns="http://www.w3.org/2000/svg" version="1.0" width="700.000000pt" height="700.000000pt" viewBox="0 0 700.000000 700.000000" preserveAspectRatio="xMidYMid meet">
<metadata>
Created by potrace 1.11, written by Peter Selinger 2001-2013
</metadata>
<g transform="translate(0.000000,700.000000) scale(0.100000,-0.100000)" fill="#000000" stroke="none">
<path d="M3272 6954 c-15 -16 -8 -64 8 -64 6 0 8 11 4 26 -5 18 -1 29 12 39
15 11 16 14 4 14 -8 0 -21 -7 -28 -15z"/>
<path d="M3316 6934 c-12 -12 -14 -20 -7 -27 8 -8 14 -8 22 0 6 6 18 9 26 6
11 -4 14 0 11 13 -4 25 -31 29 -52 8z"/>
<path d="M3152 6924 c4 -21 22 -23 26 -1 2 10 -3 17 -13 17 -10 0 -15 -6 -13
-16z"/>
<path d="M3213 6880 c-13 -21 -23 -46 -23 -54 0 -20 -12 -26 -62 -32 -24 -2
-48 -6 -55 -9 -15 -5 -25 36 -11 52 24 29 -29 11 -79 -27 -29 -22 -63 -42 -75
-44 -50 -11 -67 -15 -118 -30 -36 -11 -57 -13 -64 -6 -7 7 -3 10 12 11 12 1
27 3 32 4 6 1 16 3 23 4 9 1 8 4 -2 10 -18 11 -67 3 -106 -17 -28 -14 -29 -14
-16 1 25 31 -10 20 -64 -19 -68 -49 -147 -86 -156 -73 -9 15 -49 1 -43 -15 3
-8 -11 -17 -38 -25 -24 -7 -98 -37 -165 -67 -129 -57 -154 -65 -133 -39 11 13
8 15 -18 15 -35 0 -50 -15 -26 -24 25 -10 3 -30 -85 -77 -123 -68 -388 -228
-420 -254 -16 -14 -34 -25 -40 -25 -6 0 -11 -4 -11 -8 0 -5 -19 -22 -42 -39
-54 -39 -443 -422 -490 -483 -47 -60 -94 -155 -103 -208 -8 -47 -27 -62 -56
-44 -15 10 -23 5 -52 -31 -52 -64 -117 -172 -117 -194 0 -10 4 -23 10 -29 5
-5 11 -25 14 -45 3 -27 -2 -43 -19 -65 l-24 -29 -7 34 c-7 34 -7 34 -24 14 -9
-12 -25 -22 -34 -24 -10 -2 -25 -22 -34 -44 -9 -22 -25 -56 -37 -75 -12 -19
-29 -58 -39 -85 -9 -28 -27 -67 -41 -87 -27 -39 -31 -53 -15 -43 23 14 8 -21
-22 -52 -18 -18 -28 -33 -22 -33 14 0 12 -109 -2 -114 -7 -3 -20 -19 -29 -37
l-17 -32 26 7 c23 6 26 3 26 -18 0 -13 5 -26 11 -28 7 -2 0 -16 -15 -33 l-27
-30 4 28 c3 21 -2 35 -22 53 -31 29 -57 32 -46 7 4 -10 10 -26 12 -35 8 -26
-6 -102 -21 -123 -13 -18 -15 -17 -46 5 -29 21 -31 21 -22 3 15 -27 39 -46 50
-39 6 3 13 -5 16 -18 3 -14 18 -39 33 -56 21 -26 24 -33 12 -41 -18 -11 -34
-6 -34 11 0 33 -25 17 -41 -27 l-18 -47 -10 32 c-5 18 -13 32 -17 32 -5 0 -6
-7 -2 -16 4 -11 -1 -22 -12 -30 -10 -8 -14 -14 -9 -14 6 0 20 -9 32 -20 16
-15 20 -29 18 -58 -2 -20 -7 -68 -11 -107 -10 -117 -14 -141 -25 -170 -5 -14
-8 -31 -5 -35 3 -5 7 -69 10 -142 4 -163 13 -192 45 -153 11 13 14 12 29 -7
13 -16 24 -19 43 -15 31 8 40 27 43 85 2 24 5 45 7 48 3 2 16 -20 31 -48 22
-45 26 -68 28 -153 3 -117 6 -130 25 -114 8 6 14 18 14 26 0 8 12 24 27 37
l27 23 20 -30 c34 -49 54 -56 76 -27 10 14 22 21 27 16 12 -11 -35 -46 -63
-46 -28 0 -28 2 -9 -42 8 -20 21 -67 30 -107 14 -60 22 -75 51 -98 20 -14 42
-39 50 -55 15 -29 23 -122 12 -134 -14 -14 -29 9 -23 36 3 15 3 39 0 53 -7 27
-43 47 -54 30 -18 -29 -84 -11 -96 26 -3 11 -19 24 -35 30 -17 5 -30 16 -30
24 0 39 -79 65 -125 41 -15 -8 -37 -14 -49 -14 -56 0 -59 -51 -15 -235 38
-157 50 -182 95 -201 22 -9 34 -21 34 -34 0 -13 -5 -18 -15 -14 -22 9 -18 -6
8 -34 18 -21 19 -24 4 -19 -13 5 -28 -2 -49 -24 l-31 -31 24 -11 c24 -12 44
-48 114 -199 22 -49 42 -78 51 -78 24 0 130 -119 126 -141 -2 -10 1 -27 7 -37
6 -10 12 -31 15 -46 4 -24 2 -27 -14 -23 -11 3 -20 3 -20 1 0 -23 142 -253
175 -284 l26 -25 18 24 c15 19 24 22 46 17 20 -5 25 -11 20 -24 -25 -57 6 -75
106 -65 40 4 59 2 59 -6 0 -6 -7 -11 -15 -11 -20 0 -19 -9 2 -33 13 -14 15
-21 6 -24 -9 -3 -7 -15 7 -43 24 -47 25 -60 5 -60 -8 0 -14 4 -12 10 1 5 -12
19 -30 32 -17 13 -59 45 -93 71 -34 27 -64 46 -67 44 -6 -7 16 -49 37 -67 9
-8 46 -51 82 -95 36 -44 97 -109 135 -145 38 -36 75 -74 83 -85 21 -28 130
-125 141 -125 16 0 10 31 -13 62 -11 17 -42 44 -67 60 l-46 29 44 -6 c52 -8
130 -33 148 -47 16 -13 43 -3 43 15 0 7 -27 30 -60 51 -33 21 -60 42 -60 47 0
16 51 42 82 41 33 -1 44 -12 54 -52 4 -14 19 -38 33 -55 15 -16 35 -42 44 -57
10 -16 24 -28 31 -28 7 0 25 -9 40 -21 14 -11 30 -17 36 -14 14 9 13 25 -2 25
-30 1 -77 65 -72 98 1 6 2 19 3 28 0 8 19 23 41 31 38 15 39 17 20 30 -22 16
-27 43 -7 43 27 0 39 17 29 37 -23 43 -20 100 3 63 11 -18 34 -11 38 12 3 20
6 19 20 -14 10 -21 21 -38 26 -38 12 0 41 35 41 50 0 16 -39 52 -82 78 -26 15
-37 32 -20 32 4 0 31 -14 61 -30 30 -17 55 -30 57 -30 10 0 62 95 57 106 -3 7
-22 18 -44 24 -35 10 -42 17 -75 86 -31 66 -42 78 -80 97 -38 18 -44 26 -42
47 2 17 -2 26 -14 28 -10 2 -18 -1 -18 -7 0 -6 -9 -11 -19 -11 -44 0 -26 18
50 50 100 43 108 52 85 91 -24 40 -15 46 22 14 31 -26 66 -33 77 -15 3 6 17
10 31 10 18 0 24 -5 24 -23 0 -31 9 -38 30 -27 23 12 82 -23 74 -45 -4 -8 -10
-15 -14 -15 -26 0 -39 -140 -17 -184 6 -12 5 -22 -2 -29 -15 -15 -14 -59 2
-79 6 -9 23 -18 37 -20 14 -2 24 -8 23 -13 -1 -6 -3 -17 -5 -25 -3 -16 23 -19
55 -5 13 6 17 2 17 -17 0 -33 29 -58 67 -58 30 0 31 -2 26 -32 -2 -18 -11 -47
-20 -65 -8 -18 -12 -41 -8 -54 5 -14 3 -19 -3 -15 -6 3 -13 2 -17 -4 -14 -22
-21 -8 -19 37 2 26 -4 62 -11 80 -14 33 -15 34 -42 19 -15 -8 -36 -24 -45 -35
-10 -12 -30 -21 -46 -21 -15 0 -36 -6 -46 -13 -17 -12 -17 -15 0 -57 9 -25 21
-49 26 -55 14 -15 9 -38 -7 -32 -21 9 -54 -23 -69 -68 -12 -34 -12 -44 0 -66
21 -42 64 -88 95 -105 29 -15 32 -30 15 -74 -4 -10 11 -39 38 -75 49 -65 60
-91 24 -58 -27 25 -68 47 -68 37 0 -4 8 -17 17 -28 18 -20 18 -20 -7 -3 -14
10 -37 25 -52 35 -14 9 -30 30 -35 46 -4 16 -13 31 -19 33 -17 6 2 -96 22
-118 31 -34 6 -33 -33 2 l-38 33 -3 -31 c-7 -68 50 -126 188 -190 197 -92 240
-111 240 -106 0 3 20 -7 44 -21 64 -37 394 -151 496 -170 14 -3 36 -8 50 -10
55 -12 77 -16 120 -22 25 -3 48 -8 51 -10 4 -2 28 -6 55 -9 27 -3 60 -8 74
-11 14 -3 61 -7 105 -9 44 -2 98 -8 120 -13 23 -5 51 -5 64 -1 12 5 40 5 61 0
55 -12 307 -4 450 14 19 3 53 7 75 9 61 8 113 16 195 32 41 8 86 17 100 20
106 20 475 137 560 176 70 33 72 36 48 68 -11 15 -17 33 -14 39 12 19 26 12
26 -14 0 -26 8 -29 60 -27 39 2 384 182 424 222 5 5 2 18 -8 32 -9 13 -36 52
-60 88 -40 61 -137 160 -157 160 -23 0 -4 -28 55 -82 58 -54 97 -111 84 -124
-12 -11 -122 125 -151 184 -16 35 -40 70 -54 79 -13 9 -29 25 -34 36 -10 18
-9 19 15 13 38 -9 34 17 -9 50 -30 22 -49 28 -107 33 -5 1 -8 5 -8 10 0 16
-74 111 -86 111 -6 0 -17 7 -24 15 -7 9 -19 14 -25 11 -13 -5 -35 33 -35 59 0
24 -14 17 -32 -15 -23 -40 -38 -38 -38 4 0 19 -4 38 -10 41 -17 11 -11 24 10
20 36 -7 99 101 85 145 -7 23 -127 92 -138 81 -6 -6 9 -41 38 -91 26 -44 45
-83 43 -86 -3 -2 -31 9 -62 25 -69 37 -86 33 -86 -23 -1 -38 -2 -40 -15 -22
-8 11 -15 35 -15 53 0 35 -28 100 -55 127 -15 14 -15 16 -1 16 38 0 -8 47 -54
55 -36 6 -50 19 -50 45 0 13 1 13 10 0 14 -20 29 3 23 34 -4 16 3 29 22 45 30
23 58 30 37 9 -16 -16 -15 -53 2 -67 8 -7 17 -23 20 -37 7 -27 32 -28 30 -1
-1 13 4 13 30 5 17 -6 40 -19 51 -29 12 -10 46 -27 76 -38 31 -10 69 -26 86
-35 30 -15 31 -15 37 7 4 12 9 51 12 87 3 36 10 69 14 74 28 29 51 -59 25 -98
-10 -14 -14 -26 -10 -26 3 0 -3 -15 -14 -34 -23 -37 -21 -40 42 -79 15 -10 27
-25 27 -34 0 -15 -1 -15 -18 0 -44 40 -107 2 -107 -63 0 -34 8 -47 50 -91 28
-28 64 -57 80 -65 17 -7 49 -28 72 -46 155 -122 153 -121 202 -126 57 -5 68 6
41 41 -24 30 -25 41 -5 33 13 -4 13 -2 5 14 -5 10 -15 22 -21 25 -5 4 -8 19
-5 33 7 35 -34 95 -93 136 -45 32 -89 82 -80 91 3 3 15 -4 27 -15 12 -11 23
-20 26 -20 2 0 22 -17 43 -37 21 -21 50 -49 65 -61 l26 -24 23 26 c19 22 28
25 59 20 26 -4 40 -2 49 10 18 21 27 20 63 -5 26 -19 33 -20 54 -8 18 9 30 10
42 3 20 -13 28 -36 12 -32 -7 2 -14 -1 -16 -7 -4 -10 55 -50 69 -47 4 1 24 -5
43 -13 59 -24 92 -17 62 13 -9 9 -6 12 16 12 l28 0 -27 45 c-61 104 28 79 162
-46 60 -55 115 -81 141 -65 6 3 13 0 16 -6 6 -14 112 95 122 125 3 11 -5 34
-20 58 -30 45 -29 46 23 19 l39 -19 27 27 c52 52 246 337 299 440 16 31 16 35
1 59 -17 25 -43 57 -80 97 -29 30 -103 87 -118 90 -34 6 -57 19 -72 42 -15 24
-15 26 7 44 13 11 30 20 38 20 33 3 65 11 73 19 14 14 -31 34 -59 27 -22 -6
-24 -4 -20 19 7 38 -10 79 -30 71 -10 -4 -35 13 -73 49 -32 30 -60 52 -63 49
-6 -6 37 -177 71 -283 12 -36 24 -81 27 -102 l6 -37 -80 -3 c-97 -5 -115 -17
-86 -56 12 -16 40 -41 63 -58 41 -29 42 -29 72 -11 30 17 30 17 65 -14 20 -17
47 -35 60 -40 13 -5 24 -17 25 -27 0 -10 2 -26 4 -36 3 -17 -1 -18 -33 -12
-20 3 -57 18 -82 32 -81 46 -121 64 -163 73 -23 4 -37 8 -30 9 17 1 4 31 -13
31 -19 0 -12 -64 10 -89 10 -11 38 -28 63 -37 27 -11 40 -20 32 -24 -8 -6 -6
-11 8 -19 12 -6 30 -28 40 -50 22 -45 12 -44 -37 1 -26 24 -75 58 -85 58 -12
0 -4 -47 13 -75 20 -32 34 -65 28 -65 -2 0 -39 44 -82 97 -44 54 -88 106 -99
115 -27 23 -84 34 -106 19 -15 -9 -25 -5 -54 20 -20 18 -47 51 -61 75 -38 65
-91 107 -123 99 -14 -3 -63 -10 -108 -14 -58 -5 -89 -13 -103 -26 -14 -12 -24
-15 -30 -9 -10 10 -13 22 -26 94 -13 73 -145 583 -157 609 -7 14 -18 25 -24
24 -6 -1 -16 10 -22 24 -11 24 -10 25 4 13 28 -23 28 -2 1 102 -41 158 -59
215 -64 196 -5 -27 -16 -22 -61 25 -44 46 -50 62 -25 71 21 8 26 8 20 -3 -3
-5 4 -21 15 -35 16 -20 24 -24 34 -16 14 12 5 53 -29 134 -9 22 -21 71 -27
110 -16 102 -32 136 -64 136 -33 0 -86 -22 -104 -43 -7 -10 -26 -17 -41 -17
-27 0 -32 6 -55 75 -5 18 -10 16 -40 -20 -18 -22 -37 -37 -41 -32 -4 4 -2 7 4
7 7 0 12 5 12 10 0 14 -28 12 -33 -2 -2 -7 -1 -23 4 -35 5 -14 2 -33 -12 -59
-10 -21 -20 -47 -22 -58 -7 -54 -34 -60 -61 -13 -25 43 -32 19 -11 -43 20 -59
11 -84 -17 -49 -17 20 -19 21 -13 4 15 -44 15 -81 0 -99 -12 -16 -19 -18 -39
-8 -24 11 -25 10 -16 -13 11 -29 4 -32 -21 -9 -10 9 -25 14 -34 10 -18 -6 -14
-43 11 -105 15 -38 15 -41 -10 -80 -14 -22 -26 -49 -26 -60 0 -19 -2 -19 -37
-4 -21 8 -47 22 -57 31 -18 16 -18 16 -7 -5 20 -38 12 -49 -14 -18 -13 17 -24
26 -25 21 0 -12 42 -86 50 -86 6 0 30 -45 30 -56 0 -3 -13 4 -30 16 l-30 21 0
-20 c0 -12 -5 -21 -10 -21 -6 0 -9 -12 -6 -27 2 -16 5 -32 5 -36 2 -17 21 5
22 26 1 16 3 17 6 5 2 -9 -3 -31 -13 -49 l-16 -32 -19 24 -19 24 2 -42 c1 -23
-1 -46 -5 -49 -4 -4 -7 -2 -7 4 0 7 -4 12 -10 12 -18 0 -11 -20 16 -47 l25
-25 -45 -42 -44 -42 -28 71 c-45 117 -49 108 -14 -28 16 -60 2 -141 -34 -194
l-25 -36 -12 26 c-6 14 -19 27 -28 30 -9 2 -22 22 -29 43 -6 22 -18 48 -26 59
-14 18 -14 14 0 -33 8 -29 24 -73 34 -98 34 -79 23 -111 -22 -67 l-29 28 10
-28 c20 -51 13 -73 -31 -111 l-42 -36 28 -29 28 -29 -22 -12 c-18 -9 -20 -17
-14 -43 6 -31 4 -30 -48 26 l-54 59 -15 -23 -16 -23 -39 20 c-38 19 -39 21
-40 73 -1 31 -8 59 -16 67 -12 12 -13 9 -10 -21 3 -23 -1 -42 -11 -53 -8 -9
-17 -30 -19 -47 -3 -27 -6 -30 -38 -28 -63 4 -77 11 -93 52 -22 54 -37 60 -24
10 13 -52 0 -62 -57 -44 -86 26 -169 75 -220 129 -41 44 -121 170 -201 316
-78 143 -124 217 -150 244 -17 17 -19 17 -31 1 -11 -15 -13 -15 -19 4 -3 11 0
29 6 39 10 16 9 29 -6 68 -22 59 -137 292 -170 344 -13 21 -49 86 -80 146
-115 220 -166 303 -182 297 -9 -3 -13 -13 -10 -25 4 -14 1 -18 -9 -14 -8 3
-14 1 -14 -4 0 -6 -7 -10 -15 -10 -23 0 -18 13 15 45 17 16 30 37 30 47 0 19
-24 71 -68 147 -25 42 -26 43 -34 20 -11 -28 -81 -316 -99 -406 -10 -50 -10
-64 0 -77 18 -22 63 -20 105 4 l34 21 16 -22 c12 -18 14 -42 11 -108 -2 -47
-6 -95 -9 -106 -9 -39 -20 -120 -18 -132 2 -6 -2 -15 -8 -18 -8 -5 -11 31 -9
122 1 70 1 137 0 148 -1 18 -2 19 -12 3 -5 -10 -12 -36 -14 -59 -3 -23 -7 -44
-10 -48 -8 -7 -23 17 -34 56 -5 17 -25 47 -44 67 l-35 35 -10 -27 c-18 -48
-34 -102 -48 -170 -43 -200 -43 -223 6 -217 22 3 34 -2 45 -18 19 -27 19 -41
0 -34 -8 4 -17 1 -21 -5 -4 -6 -22 -8 -45 -4 -27 4 -42 2 -53 -9 -16 -16 -36
-76 -36 -109 0 -11 -5 -16 -13 -13 -9 3 -13 -6 -15 -32 -2 -47 -60 -253 -62
-221 -1 23 -2 23 -9 5 -6 -13 -4 -23 4 -27 11 -6 9 -21 -6 -70 -21 -71 -24
-108 -8 -108 6 0 -1 -14 -15 -31 -28 -33 -34 -76 -13 -85 8 -3 32 -1 54 4 37
8 40 8 36 -9 -3 -12 -14 -19 -29 -19 -14 0 -24 -6 -24 -14 0 -12 -6 -13 -30
-5 -24 9 -33 8 -46 -5 -8 -9 -27 -16 -42 -17 -15 0 -36 -2 -47 -4 -11 -2 -51
-5 -88 -6 -50 -2 -75 -7 -93 -21 -24 -19 -24 -19 -24 2 l0 21 -26 -20 c-30
-24 -53 -28 -35 -8 16 20 3 27 -50 27 -42 0 -48 -3 -57 -28 -7 -19 -17 -28
-36 -30 -17 -1 -26 3 -27 13 -3 29 -4 33 -12 42 -5 4 -13 -1 -19 -11 -8 -15
-12 -16 -19 -5 -6 10 -38 15 -119 16 -126 3 -134 -2 -105 -63 17 -36 22 -43
75 -103 34 -38 37 -46 15 -37 -21 8 -19 -17 3 -31 11 -6 24 -35 31 -69 10 -45
22 -67 48 -92 l34 -32 -35 -1 c-20 -1 -44 -2 -53 -3 -20 -1 -41 50 -45 110 -2
27 -8 38 -25 45 -20 7 -21 12 -13 34 14 37 13 43 -16 61 -39 26 -50 7 -31 -53
38 -115 26 -144 -24 -56 -18 32 -38 65 -44 73 -14 18 -32 85 -40 155 -11 95
-25 133 -54 145 -40 16 -81 -1 -74 -32 5 -22 5 -22 -12 -6 -10 9 -19 28 -20
43 -2 14 -8 32 -14 39 -14 16 -4 26 26 26 20 0 23 4 19 25 -7 40 13 29 33 -17
19 -43 20 -43 36 7 3 9 17 15 36 15 26 0 30 -3 26 -20 -3 -10 2 -25 9 -31 8
-7 13 -18 10 -24 -2 -7 -1 -17 3 -24 6 -9 10 -9 18 1 22 30 68 191 61 219 -1
8 7 28 20 46 27 38 27 43 5 43 -42 1 -45 17 -9 38 45 27 54 48 31 70 -13 13
-19 14 -22 5 -9 -25 -23 -12 -23 21 0 36 37 77 80 91 40 13 60 140 30 195 -7
13 -8 26 -2 33 5 7 8 19 6 27 -33 142 -40 154 -77 126 -15 -12 -17 -18 -7 -36
6 -12 13 -30 15 -41 2 -12 7 -28 10 -37 3 -11 -3 -22 -15 -30 -19 -11 -20 -10
-20 27 0 42 -45 196 -59 206 -5 3 -12 23 -16 44 -3 22 -15 47 -27 57 -11 10
-28 37 -39 60 -39 86 -112 110 -134 45 -15 -45 -29 -49 -45 -12 -7 17 -18 36
-26 42 -12 9 -9 17 15 44 15 18 37 51 47 73 21 45 30 50 60 27 36 -27 89 -15
126 29 17 21 18 20 13 -19 -10 -77 8 -109 67 -120 26 -5 38 -22 38 -53 0 -35
25 -85 54 -109 16 -14 26 -33 26 -49 0 -21 4 -25 20 -21 24 6 28 1 36 -49 13
-81 34 -78 64 9 36 102 34 190 -3 159 -19 -16 -27 2 -20 44 7 36 22 56 36 47
10 -6 9 7 -9 92 l-6 30 18 -23 c11 -13 29 -35 41 -50 l22 -26 15 36 c35 84 45
200 45 556 0 33 4 51 10 48 5 -4 7 -19 5 -34 -4 -22 -3 -25 7 -14 18 17 49 15
49 -2 0 -8 -4 -17 -9 -21 -5 -3 -13 -20 -16 -37 -4 -18 -17 -44 -28 -59 -21
-30 -17 -59 9 -59 12 0 14 -5 8 -17 -13 -30 -17 -96 -6 -89 9 5 23 52 36 121
3 11 18 61 34 110 36 111 77 283 68 292 -3 3 -15 -2 -27 -13 -17 -15 -20 -26
-14 -62 6 -39 5 -43 -12 -38 -10 3 -34 8 -54 11 l-35 7 58 60 c32 33 58 65 58
71 0 6 -8 19 -17 29 -16 18 -15 19 24 12 l41 -6 25 53 c13 30 48 127 76 216
28 90 58 175 68 190 17 28 17 28 -3 11 -25 -22 -40 -23 -48 -2 -8 20 1 34 21
34 19 0 14 44 -17 139 -26 83 -26 84 11 25 17 -27 45 -66 61 -86 l29 -37 47
34 c26 19 58 43 72 53 42 32 87 52 138 62 69 13 102 27 102 45 0 19 -1 19 51
-4 24 -10 78 -25 119 -31 54 -9 88 -21 120 -43 65 -45 194 -176 216 -218 11
-21 34 -58 53 -85 l34 -48 -23 -15 c-47 -31 -65 -49 -57 -57 5 -5 26 1 47 14
41 23 56 17 45 -18 -5 -16 -2 -20 17 -20 18 0 30 -11 48 -42 12 -24 65 -117
116 -208 51 -91 100 -185 110 -210 9 -25 28 -57 41 -71 13 -14 44 -66 68 -114
35 -68 42 -91 33 -98 -10 -7 -10 -10 0 -14 37 -15 75 -72 223 -343 183 -334
205 -368 225 -348 7 7 69 117 137 243 126 234 248 453 400 721 126 222 157
283 157 302 0 11 -13 23 -34 30 -18 7 -41 21 -50 31 -16 17 -15 20 19 47 20
16 50 42 67 57 17 16 42 31 54 33 62 11 111 48 85 63 -16 10 -2 142 16 148 6
2 21 -6 32 -18 21 -23 21 -23 39 -3 56 65 57 144 0 144 -10 0 -18 6 -19 13 0
6 -2 20 -4 30 -2 12 10 6 41 -22 65 -60 120 -53 95 12 -12 31 2 39 37 24 32
-15 43 5 30 52 -11 38 -46 84 -59 76 -11 -8 -20 11 -13 29 15 40 58 29 125
-31 21 -19 39 -34 40 -32 0 2 3 38 5 79 6 115 12 142 32 138 11 -2 16 -12 15
-28 -18 -187 -13 -205 56 -196 25 3 58 15 73 26 22 16 32 18 54 10 15 -6 34
-8 41 -6 19 8 3 36 -53 96 -24 26 -44 50 -44 54 0 3 11 6 25 6 18 0 26 7 31
25 l6 24 29 -21 c16 -12 29 -31 29 -42 1 -18 4 -17 29 12 22 25 35 32 64 32
29 0 35 -3 30 -16 -6 -17 15 -42 149 -172 29 -28 38 -17 16 18 -11 17 -9 23
13 46 l26 26 43 -22 c23 -12 44 -19 47 -17 10 11 -48 87 -67 87 -26 0 -36 21
-16 35 15 11 13 15 -19 39 -19 15 -35 32 -35 37 0 6 5 7 10 4 19 -11 10 32
-11 60 -18 22 -20 29 -8 36 8 5 17 9 22 9 4 0 7 5 7 11 0 6 -14 9 -32 7 -31
-3 -33 -5 -33 -43 0 -36 -2 -40 -23 -37 -21 3 -23 1 -16 -20 6 -21 5 -21 -10
-9 -9 8 -16 26 -16 40 3 45 1 47 -26 18 -20 -22 -29 -26 -38 -17 -12 12 19 42
106 102 26 18 48 36 48 40 0 4 -12 11 -27 14 -57 15 -136 56 -171 89 -20 19
-34 37 -30 40 3 3 21 -10 39 -29 29 -31 35 -34 42 -19 7 12 4 20 -13 33 -13
10 -18 20 -13 23 7 4 7 22 2 49 -12 63 -11 66 19 82 36 19 182 33 182 17 0 -6
9 -11 19 -11 23 0 37 -18 25 -30 -15 -15 -80 -18 -117 -5 -33 11 -36 10 -66
-20 -30 -31 -40 -68 -23 -79 19 -12 64 -14 96 -5 40 11 112 -12 134 -43 14
-19 66 -24 91 -9 11 7 10 11 -5 20 -31 17 8 14 42 -4 16 -8 37 -15 47 -15 19
0 82 -42 105 -69 6 -8 12 -11 12 -7 0 4 16 -6 35 -23 36 -31 78 -40 91 -19 4
6 -7 22 -26 38 -22 18 -29 29 -21 34 7 5 8 13 1 25 -6 12 -5 22 3 30 9 10 7
17 -12 32 -12 10 -27 17 -31 14 -5 -3 -11 -1 -14 4 -4 5 -2 12 4 16 15 9 12
48 -6 74 l-17 24 -18 -24 -19 -24 0 52 c0 42 4 55 20 65 11 7 20 18 20 25 0
21 21 25 40 8 17 -15 19 -15 25 4 3 12 15 21 26 21 23 0 25 13 4 30 -21 17
-19 36 7 54 22 15 21 16 -43 78 -35 35 -100 92 -144 128 -44 36 -81 71 -81 78
-3 24 -4 26 -14 16 -14 -14 -110 31 -110 51 0 19 -65 38 -103 31 -17 -3 -39
-14 -49 -23 -17 -15 -18 -15 -18 5 0 23 -14 29 -25 12 -4 -7 -13 -6 -27 1 -14
8 -23 8 -31 0 -6 -6 -23 -11 -38 -11 -29 0 -44 -21 -26 -39 8 -8 7 -17 -3 -36
-15 -28 -33 -31 -68 -11 -23 12 -22 13 19 25 50 15 37 31 -19 24 -31 -4 -35
-3 -24 9 10 12 8 19 -7 36 -23 28 -29 27 -60 -2 -15 -14 -43 -27 -66 -30 -22
-2 -34 -2 -27 0 25 11 11 22 -36 29 -26 3 -54 10 -62 16 -19 12 48 11 110 -1
42 -8 47 -7 72 20 31 35 76 49 89 29 5 -8 9 -27 9 -42 0 -15 6 -30 14 -33 20
-8 161 60 169 80 5 11 -2 25 -18 40 -61 57 -403 213 -580 266 -107 32 -113 32
-136 9 -20 -20 -21 -23 -5 -34 9 -7 19 -23 21 -35 2 -12 9 -28 16 -36 9 -11 6
-14 -20 -14 -17 0 -33 1 -34 3 -2 1 -11 -4 -19 -11 -13 -10 -17 -10 -21 0 -4
10 -10 8 -21 -5 -8 -10 -20 -19 -28 -21 -7 -1 -18 -5 -25 -9 -6 -4 -14 -3 -18
3 -4 6 -16 3 -32 -10 -31 -24 -43 -25 -69 -4 -18 15 -18 15 5 10 15 -3 35 2
52 15 15 11 53 24 83 31 31 6 56 14 56 17 0 4 -13 15 -30 24 -16 10 -30 26
-30 36 0 10 -7 24 -15 31 -26 22 -17 38 27 47 l43 9 -60 21 c-90 32 -209 55
-307 58 -47 2 -95 8 -105 13 -10 6 -38 13 -62 17 -52 8 -87 20 -96 34 -9 16
-52 13 -59 -4 -6 -17 -42 -20 -52 -4 -3 6 -18 9 -33 6 -14 -3 -34 -1 -43 4
-12 6 -25 6 -40 -2 -18 -10 -29 -8 -65 12 -42 23 -45 23 -58 6 -11 -15 -17
-16 -39 -6 -20 10 -29 10 -38 1 -14 -14 -87 -16 -107 -3 -11 7 -11 13 3 32 17
25 21 49 9 49 -5 0 -18 -18 -30 -40z m-577 -175 c-11 -8 -25 -15 -30 -15 -6 0
-2 7 8 15 11 8 25 15 30 15 6 0 2 -7 -8 -15z m1629 -44 c3 -5 -11 -15 -30 -22
-19 -7 -34 -18 -32 -24 3 -8 57 -27 97 -34 2 -1 0 -5 -5 -10 -14 -14 -65 -22
-65 -10 0 5 -11 14 -25 19 -32 12 -34 53 -3 74 25 18 54 21 63 7z m368 -76
l27 -7 -30 -34 c-16 -19 -30 -40 -30 -47 0 -7 -5 -3 -11 8 -6 11 -23 30 -37
42 -49 41 -7 62 81 38z m-253 -144 c0 -6 -11 -23 -25 -38 l-24 -28 16 38 c16
34 33 49 33 28z m-1220 -161 c-5 -17 -9 -33 -9 -35 -1 -3 -11 -7 -23 -10 -22
-5 -22 -5 -4 9 10 8 16 18 13 23 -2 4 -1 18 4 31 13 34 29 18 19 -18z m440 12
c0 -15 -2 -15 -10 -2 -13 20 -13 33 0 25 6 -3 10 -14 10 -23z m-246 -26 c-4
-19 1 -29 25 -47 34 -25 42 -46 12 -30 -14 8 -22 7 -31 -4 -8 -9 -21 -13 -32
-9 -15 5 -19 2 -16 -13 2 -14 14 -19 49 -21 38 -2 52 2 76 22 30 25 31 25 48
6 10 -11 26 -22 36 -25 23 -7 25 -25 4 -25 -8 0 -20 8 -26 19 -11 16 -16 17
-48 5 -20 -7 -48 -15 -63 -19 -32 -6 -37 -23 -10 -31 9 -3 24 -9 34 -14 11 -6
20 -4 28 5 7 8 17 12 24 8 6 -4 21 -6 34 -4 13 1 22 -3 22 -11 1 -9 5 -8 13 4
16 20 40 9 32 -15 -4 -8 -31 -33 -61 -53 -45 -31 -58 -36 -73 -27 -19 12 -46
2 -69 -26 -11 -14 -12 -13 -3 6 14 27 0 37 -25 18 -10 -8 -25 -15 -32 -15 -23
0 16 59 43 66 31 8 32 30 4 60 -17 18 -26 21 -40 14 -13 -7 -22 -5 -34 6 -15
15 -18 15 -32 1 -12 -12 -13 -20 -6 -29 14 -16 24 -90 12 -82 -5 3 -9 14 -9
24 0 25 -16 34 -24 14 -4 -9 1 -28 10 -41 22 -34 9 -41 -21 -13 l-25 24 6 -32
c9 -46 -3 -39 -29 16 -12 26 -37 67 -55 91 -18 24 -30 46 -27 49 7 8 44 -28
50 -48 7 -21 31 -33 54 -25 19 6 61 85 61 116 0 11 5 17 10 14 6 -3 10 -15 10
-26 0 -10 5 -19 10 -19 19 0 10 43 -15 76 -21 28 -22 34 -10 44 15 13 16 12
27 -27 2 -7 18 -1 43 17 22 16 41 29 43 29 1 1 0 -10 -4 -23z m-411 -97 c3
-14 1 -32 -4 -40 -8 -12 -11 -12 -19 1 -6 8 -8 24 -5 35 2 11 5 27 5 35 0 22
18 -1 23 -31z m115 20 c-2 -6 -8 -10 -13 -10 -5 0 -11 4 -13 10 -2 6 4 11 13
11 9 0 15 -5 13 -11z m-318 -9 c0 -6 11 -15 25 -20 21 -8 24 -14 19 -40 -8
-39 1 -38 22 3 l17 32 13 -30 c6 -16 11 -42 10 -58 l-2 -29 55 7 56 7 -26 -24
c-20 -19 -26 -32 -22 -52 4 -19 -1 -34 -18 -52 l-24 -26 25 6 c14 3 45 7 70 8
l45 3 0 -55 0 -55 -37 -3 c-43 -4 -46 -13 -24 -74 14 -38 10 -48 -12 -26 -9 9
-13 7 -18 -5 -3 -9 -12 -17 -19 -17 -7 0 -15 -7 -19 -15 -11 -28 -29 -16 -22
15 4 25 2 30 -13 30 -11 0 -21 -6 -24 -12 -3 -10 -16 -9 -54 5 -28 9 -60 17
-71 17 -26 0 -39 -18 -18 -26 34 -13 25 -34 -28 -59 -29 -14 -61 -25 -70 -25
-9 0 -19 -7 -22 -15 -8 -20 -24 -9 -24 18 l-1 22 -19 -24 c-25 -29 -25 -43 -2
-39 22 4 29 -37 7 -46 -10 -4 -19 3 -27 19 -14 30 -28 32 -28 4 0 -11 -4 -18
-9 -14 -6 3 -6 17 1 36 6 16 8 33 4 36 -8 9 -47 -28 -57 -54 -13 -36 -31 -28
-24 10 4 20 1 43 -9 61 -9 17 -13 44 -10 68 4 29 0 45 -16 66 -19 23 -19 28
-6 37 13 10 13 13 -2 28 -15 16 -15 17 2 17 16 0 16 2 6 15 -7 9 -19 14 -27
11 -18 -7 -16 10 4 45 18 30 46 49 36 23 -3 -7 -9 -14 -14 -14 -5 0 -9 -7 -9
-15 0 -8 9 -15 20 -15 11 0 20 5 20 10 0 6 5 10 11 10 7 0 10 -14 7 -35 l-4
-35 54 2 c50 2 71 -8 72 -34 0 -12 -28 -10 -35 2 -9 15 -25 12 -32 -6 -4 -11
2 -23 17 -34 22 -17 23 -19 8 -56 -17 -46 -13 -74 10 -74 31 0 97 22 114 37
25 23 61 100 52 114 -4 7 -8 30 -9 52 -1 21 -7 42 -13 46 -11 7 -10 150 1 198
11 43 32 78 57 90 30 15 60 17 60 3z m2200 -25 c10 -12 10 -15 -4 -15 -9 0
-16 7 -16 15 0 8 2 15 4 15 2 0 9 -7 16 -15z m-15 -56 c-15 -5 -33 -5 -39 -2
-14 9 34 21 54 14 9 -3 4 -7 -15 -12z m-3357 -11 c-8 -12 -21 -24 -28 -26 -8
-3 -6 5 6 21 23 32 42 36 22 5z m3898 -125 c-10 -10 -19 5 -10 18 6 11 8 11
12 0 2 -7 1 -15 -2 -18z m-1962 2 c-4 -8 -9 -15 -14 -15 -4 0 -12 -10 -18 -22
-7 -16 -11 -18 -11 -7 -1 8 8 25 19 37 24 26 32 28 24 7z m-234 -11 c0 -10 5
-14 15 -10 13 4 14 2 5 -14 -6 -11 -13 -20 -17 -20 -12 0 -31 34 -26 47 7 18
23 16 23 -3z m2342 -98 c51 11 72 12 91 2 31 -16 19 -29 -20 -22 -21 3 -42 7
-48 8 -5 0 -8 -12 -7 -28 4 -28 3 -28 -36 -21 l-41 7 20 -38 c25 -49 24 -64
-3 -64 -20 0 -19 -3 12 -35 39 -40 37 -40 -86 -3 -59 17 -79 28 -92 50 -17 30
-48 36 -83 18 -10 -6 -19 -7 -19 -2 0 5 20 20 45 33 l44 24 39 -38 c63 -61
138 -55 126 11 -3 15 -9 31 -14 36 -6 6 -5 14 1 22 14 17 -6 54 -28 54 -13 0
-13 3 -3 15 12 14 16 13 41 -11 23 -22 32 -25 61 -18z m-4006 -51 c19 -26 18
-43 -1 -25 -8 9 -16 29 -18 45 -3 17 -2 23 0 15 3 -8 12 -24 19 -35z m1584 35
c0 -5 -7 -10 -16 -10 -8 0 -12 5 -9 10 3 6 10 10 16 10 5 0 9 -4 9 -10z m554
-13 c-2 -7 4 -22 16 -32 27 -24 25 -32 -7 -40 -16 -3 -45 -23 -65 -43 -21 -20
-38 -33 -38 -28 0 19 23 46 57 67 21 12 40 24 42 25 2 2 -4 10 -13 20 -13 12
-14 19 -5 30 14 18 20 18 13 1z m-2479 -16 c3 -11 16 -21 28 -23 12 -2 22 -8
22 -15 0 -6 3 -14 7 -18 9 -10 -2 -35 -16 -34 -13 0 -69 109 -56 109 5 0 11
-9 15 -19z m2598 -29 c15 -6 27 -16 27 -21 0 -6 14 -31 32 -56 17 -24 29 -47
27 -50 -3 -3 -20 15 -38 40 -18 25 -46 55 -62 67 -16 12 -37 33 -46 47 l-16
26 24 -21 c13 -11 36 -25 52 -32z m-2336 -109 c-3 -10 -5 -4 -5 12 0 17 2 24
5 18 2 -7 2 -21 0 -30z m3128 -33 c-28 -12 -47 -12 -40 0 3 6 18 10 33 9 24 0
25 -1 7 -9z m-1839 -28 c-3 -3 -16 -10 -28 -16 -34 -17 -28 -40 12 -46 63 -11
100 -32 100 -59 0 -14 -7 -33 -17 -43 -23 -26 -5 -63 36 -71 39 -8 55 -37 39
-72 -9 -19 -9 -28 0 -37 9 -9 12 -5 12 16 0 33 19 31 37 -5 13 -24 18 -79 7
-79 -3 0 -25 17 -50 38 -25 20 -53 36 -63 34 -25 -4 -96 47 -125 91 -28 40
-32 62 -16 72 6 4 9 1 8 -6 -6 -27 33 -20 62 11 17 18 30 34 30 36 0 2 -12 4
-27 4 -15 0 -53 12 -85 27 l-57 26 19 25 c11 14 20 29 20 35 0 6 7 18 16 28
13 14 21 16 45 7 17 -6 28 -13 25 -16z m134 -13 c-7 -11 -14 -18 -17 -15 -3 3
0 12 7 21 18 21 23 19 10 -6z m1625 1 c3 -5 -1 -10 -9 -10 -8 0 -18 5 -21 10
-3 6 1 10 9 10 8 0 18 -4 21 -10z m-2325 -24 c0 -7 11 -25 25 -40 14 -15 23
-32 19 -37 -8 -14 -22 -2 -44 41 -22 43 -26 65 -10 55 6 -3 10 -12 10 -19z
m2550 9 c7 -8 9 -15 6 -15 -4 0 -14 7 -22 15 -9 8 -11 15 -6 15 5 0 15 -7 22
-15z m-562 -17 c-4 -27 -28 -36 -28 -10 0 20 8 32 22 32 5 0 8 -10 6 -22z
m-1625 -16 c9 -8 17 -19 17 -24 0 -17 -17 -7 -39 23 -23 31 -14 31 22 1z
m2232 -31 c-3 -6 -11 -11 -17 -11 -6 0 -6 6 2 15 14 17 26 13 15 -4z m140 2
c11 -4 26 -6 33 -5 6 2 12 -4 12 -11 0 -8 11 -18 24 -21 28 -7 86 -53 86 -68
0 -6 -11 -3 -25 6 -24 16 -26 16 -35 -9 -13 -34 -30 -32 -30 4 0 16 -7 35 -17
42 -15 13 -16 10 -10 -39 l6 -54 -19 25 c-11 14 -20 34 -20 45 0 11 -15 33
-33 49 -48 42 -53 53 -20 47 16 -3 37 -8 48 -11z m-1997 -13 c7 -12 18 -18 25
-14 8 5 8 3 -1 -7 -10 -10 -17 -11 -31 -2 -10 6 -24 8 -31 3 -17 -10 -33 -3
-24 11 3 5 9 7 14 4 4 -3 10 2 14 10 8 21 19 19 34 -5z m1222 -49 c0 -10 -7
-25 -17 -32 -15 -13 -15 -12 -5 8 7 12 9 29 5 39 -4 12 -3 15 5 10 7 -4 12
-15 12 -25z m-110 15 c0 -3 -7 -12 -16 -20 -19 -20 -40 -11 -23 10 10 13 39
20 39 10z m-68 -21 c0 -5 -5 -11 -11 -13 -6 -2 -11 4 -11 13 0 9 5 15 11 13 6
-2 11 -8 11 -13z m-1782 -8 c0 -7 -7 -22 -15 -33 -13 -17 -14 -16 -4 14 11 33
19 41 19 19z m1680 -8 c0 -5 -7 -9 -15 -9 -15 0 -20 12 -9 23 8 8 24 -1 24
-14z m-60 3 c0 -13 -48 -33 -55 -22 -4 6 15 17 53 29 1 1 2 -3 2 -7z m85 -90
c-6 -7 -35 18 -35 31 0 5 9 2 20 -8 11 -10 18 -20 15 -23z m-2820 -8 c-8 -20
-15 -44 -15 -54 0 -22 -31 -35 -41 -18 -9 13 9 47 44 86 28 30 30 28 12 -14z
m2945 15 c0 -5 -4 -9 -10 -9 -5 0 -10 7 -10 16 0 8 5 12 10 9 6 -3 10 -10 10
-16z m-1515 -24 c11 -19 17 -37 13 -40 -11 -11 -39 8 -53 36 -19 36 -19 39 3
39 11 0 27 -14 37 -35z m2433 -73 c-3 -16 -34 -40 -41 -32 -2 3 -7 36 -10 74
l-7 69 31 -48 c16 -26 29 -54 27 -63z m-2572 81 c72 -66 98 -123 57 -123 -11
0 -13 7 -9 23 4 18 -3 32 -34 62 -22 22 -40 43 -40 47 0 12 5 10 26 -9z m1715
-10 c13 -15 12 -15 -8 -4 -24 12 -29 21 -14 21 5 0 15 -7 22 -17z m334 -3 c-3
-5 -14 -10 -23 -10 -15 0 -15 2 -2 10 20 13 33 13 25 0z m395 -20 c14 -11 30
-20 37 -20 18 0 25 -18 14 -37 -10 -17 -10 -17 -11 0 0 14 -5 17 -20 12 -10
-3 -30 1 -43 10 -14 9 -35 18 -47 20 -33 6 -36 13 -9 24 36 14 51 13 79 -9z
m-3995 -26 c54 -1 83 -12 57 -21 -7 -3 -26 -25 -43 -49 -18 -26 -38 -44 -49
-44 -14 0 -27 -17 -46 -56 -14 -30 -28 -53 -31 -50 -3 3 0 12 7 21 7 8 14 48
15 88 3 93 14 145 26 126 5 -8 29 -14 64 -15z m3345 -6 c6 -13 15 -30 22 -39
9 -13 8 -25 -4 -54 -13 -34 -13 -40 5 -75 17 -36 24 -59 26 -86 1 -6 22 -31
47 -56 41 -41 45 -48 34 -67 -8 -16 -9 -35 -2 -67 13 -60 -13 -62 -28 -1 -13
51 -50 127 -62 127 -4 0 -8 -8 -8 -18 0 -10 -5 -23 -12 -30 -8 -8 -8 -15 2
-27 19 -23 -6 -20 -41 6 -22 16 -29 17 -29 6 0 -8 -6 -20 -14 -26 -8 -7 -13
-22 -11 -34 4 -21 4 -21 -10 -3 -8 11 -15 23 -15 27 0 5 -11 -3 -25 -17 -14
-14 -30 -22 -35 -19 -15 10 -12 45 4 45 8 0 27 11 42 25 15 14 34 25 43 25 21
1 -88 59 -111 60 -10 0 -21 -8 -26 -17 -11 -21 -5 -46 9 -37 10 6 12 -9 2 -19
-9 -10 -33 13 -33 33 0 22 29 48 62 54 17 3 38 -4 61 -20 62 -42 109 -38 121
11 3 13 -3 65 -13 114 -28 125 -36 201 -22 201 6 0 16 -10 21 -22z m-3460 -23
c-22 -58 -41 -85 -61 -85 -17 0 -18 3 -8 23 19 36 59 87 69 87 6 0 6 -10 0
-25z m4055 -4 c3 -5 -2 -16 -10 -25 -14 -13 -13 -16 6 -27 17 -9 19 -13 8 -20
-16 -9 -39 25 -34 50 2 9 4 19 4 24 1 10 19 9 26 -2z m-3685 -21 c0 -5 7 -10
15 -10 18 0 20 -26 3 -36 -6 -4 -17 1 -25 11 -11 16 -12 11 -7 -42 6 -53 4
-63 -15 -82 -11 -11 -21 -27 -21 -33 0 -21 -39 -78 -58 -85 -9 -4 -20 -10 -23
-15 -16 -25 -1 73 17 103 12 19 24 51 28 70 11 59 86 163 86 119z m1440 -10
c0 -5 -7 -10 -16 -10 -8 0 -12 -4 -9 -10 3 -5 -1 -10 -9 -10 -8 0 -18 5 -21
10 -10 16 4 30 31 30 13 0 24 -4 24 -10z m1861 -23 c-13 -13 -26 -3 -16 12 3
6 11 8 17 5 6 -4 6 -10 -1 -17z m96 -24 c-8 -7 -37 9 -31 19 3 5 12 4 20 -3 8
-6 13 -14 11 -16z m-2467 -23 c14 -10 21 -22 17 -27 -5 -4 -13 0 -18 10 -6 9
-16 17 -23 17 -8 0 -19 6 -25 14 -17 20 16 11 49 -14z m-1119 -13 c-13 -13
-26 -3 -16 12 3 6 11 8 17 5 6 -4 6 -10 -1 -17z m1921 -7 c23 -11 50 -20 59
-20 10 0 25 -7 33 -16 15 -14 18 -14 36 8 18 20 19 21 14 3 -4 -11 -16 -30
-27 -43 -18 -19 -22 -20 -30 -7 -9 17 -86 59 -94 52 -15 -15 68 -122 105 -135
34 -12 59 -2 96 38 28 30 31 31 85 25 31 -4 58 -9 61 -11 7 -8 -24 -24 -37
-19 -18 6 -69 -50 -76 -84 -7 -35 -30 -49 -89 -57 -24 -4 -54 -11 -67 -15 -34
-13 -38 -3 -13 31 27 36 28 50 3 50 -37 0 -52 13 -81 71 -34 66 -49 80 -57 50
-7 -26 -21 -27 -30 -3 -3 9 -17 31 -29 49 -22 30 -23 33 -7 48 21 21 84 15
145 -15z m-470 -7 c15 -15 28 -33 28 -40 0 -7 11 -13 24 -13 25 0 75 -54 62
-67 -14 -15 -156 110 -156 137 0 16 12 11 42 -17z m2206 2 c37 16 53 17 67 5
22 -18 18 -39 -10 -52 -22 -10 -29 -8 -55 17 -17 16 -29 36 -29 44 1 12 3 11
6 -2 3 -13 10 -16 21 -12z m-1958 -48 c0 -5 -7 -4 -15 3 -8 7 -15 20 -15 29 1
13 3 13 15 -3 8 -11 15 -24 15 -29z m1915 32 c10 -15 -1 -23 -20 -15 -9 3 -13
10 -10 16 8 13 22 13 30 -1z m-1165 -104 c0 -8 -4 -15 -9 -15 -5 0 -11 7 -15
15 -3 9 0 15 9 15 8 0 15 -7 15 -15z m-1835 -36 c12 -19 -5 -23 -22 -6 -16 16
-16 17 -1 17 9 0 20 -5 23 -11z m1795 -9 c6 -11 7 -20 2 -20 -10 0 -32 21 -32
32 0 16 19 8 30 -12z m-675 -79 c26 -4 34 -12 18 -18 -7 -3 -13 -13 -13 -23 0
-10 -9 -22 -20 -25 -24 -8 -17 -25 11 -25 10 0 19 -7 19 -15 0 -8 7 -15 15
-15 8 0 15 -4 15 -10 0 -14 -16 -12 -53 6 -54 28 -58 33 -41 59 14 22 14 24
-15 41 -36 21 -46 41 -30 60 9 11 17 10 43 -9 17 -12 40 -24 51 -26z m989 -25
c1 -41 -3 -62 -10 -59 -6 2 -28 -10 -49 -27 -21 -16 -42 -30 -46 -30 -19 0 -7
19 25 41 40 27 56 56 56 103 0 32 8 51 18 41 3 -3 6 -34 6 -69z m-3134 25 c0
-17 -4 -33 -10 -36 -6 -4 -10 8 -10 29 0 20 5 36 10 36 6 0 10 -13 10 -29z
m3179 -25 c-9 -8 -10 -7 -5 7 3 10 7 24 7 30 1 7 3 4 6 -7 3 -10 -1 -23 -8
-30z m255 -5 c-19 -29 -38 -44 -72 -55 -25 -9 -48 -16 -50 -16 -3 0 22 17 55
39 33 21 63 46 66 55 4 9 11 16 17 16 6 0 -1 -18 -16 -39z m-2834 -11 c-10
-23 -10 -34 -1 -43 6 -6 11 -7 11 -1 0 5 4 3 9 -5 6 -9 5 -23 -1 -36 -8 -18
-15 -21 -36 -16 -15 4 -49 4 -76 -1 -62 -9 -70 -3 -22 17 43 18 116 88 116
112 0 9 3 13 6 10 4 -4 1 -20 -6 -37z m-160 17 c0 -7 -7 -22 -15 -33 -16 -20
-16 -18 0 31 5 18 15 20 15 2z m2109 -24 c8 -16 4 -18 -29 -19 -36 -2 -37 -1
-21 16 21 24 38 24 50 3z m111 -44 c0 -4 15 -14 33 -23 37 -19 119 -77 143
-100 15 -15 14 -16 -16 -11 -48 8 -110 43 -110 61 0 13 -6 15 -27 9 -16 -4
-25 -3 -21 0 4 4 0 22 -9 39 -9 17 -18 25 -20 19 -3 -7 -11 -13 -18 -13 -10 0
-11 5 -2 24 9 19 14 22 29 12 10 -6 18 -14 18 -17z m930 -15 c0 -13 -4 -24
-10 -24 -5 0 -10 14 -10 31 0 17 4 28 10 24 6 -3 10 -17 10 -31z m-1307 -38
c28 -26 32 -46 10 -53 -6 -2 -9 6 -6 20 3 16 0 24 -9 24 -21 0 -69 34 -62 44
7 11 30 -1 67 -35z m-2323 21 c0 -20 -56 -94 -79 -107 -18 -9 -20 -8 -14 7 12
33 43 72 64 78 16 5 18 10 8 21 -9 11 -8 14 5 14 9 0 16 -6 16 -13z m3091 -69
l30 -33 -28 -3 c-39 -5 -49 -18 -24 -31 17 -10 19 -16 11 -31 -15 -29 -12 -40
13 -40 12 0 28 -4 36 -9 20 -13 -4 -51 -32 -51 -13 0 -28 -5 -35 -12 -20 -20
-25 -1 -6 26 15 25 15 28 0 45 -9 9 -16 29 -16 43 0 15 -7 29 -16 32 -14 5
-14 9 -3 22 7 9 12 29 11 45 -3 39 21 38 59 -3z m339 13 c-7 -13 -7 -22 0 -26
5 -3 10 -14 9 -23 0 -10 -7 -3 -17 16 -14 29 -14 34 -2 42 21 13 22 12 10 -9z
m-3022 -77 c2 -16 -1 -23 -8 -19 -5 3 -10 18 -10 32 0 32 13 22 18 -13z m1892
-19 c10 -12 10 -15 -4 -15 -9 0 -16 7 -16 15 0 8 2 15 4 15 2 0 9 -7 16 -15z
m367 0 c9 -24 -1 -27 -15 -5 -8 13 -8 20 -2 20 6 0 13 -7 17 -15z m103 -29 c0
-8 -4 -18 -10 -21 -5 -3 -10 3 -10 14 0 12 5 21 10 21 6 0 10 -6 10 -14z
m-2845 -6 c3 -5 -1 -10 -9 -10 -8 0 -18 5 -21 10 -3 6 1 10 9 10 8 0 18 -4 21
-10z m935 -20 c0 -11 -4 -20 -9 -20 -5 0 -7 9 -4 20 3 11 7 20 9 20 2 0 4 -9
4 -20z m2551 -29 c-6 -10 -7 -21 -4 -25 3 -3 -6 -6 -21 -6 -26 0 -27 -2 -22
-40 5 -49 -7 -52 -22 -5 -11 39 -10 42 43 75 38 24 38 24 26 1z m-3521 -14 c0
-19 -27 -53 -35 -45 -4 4 1 18 12 32 21 29 23 31 23 13z m3070 8 c0 -4 -7 -19
-15 -34 -8 -16 -11 -31 -8 -35 4 -3 3 -6 0 -6 -3 0 -11 8 -16 18 -7 14 -6 25
5 40 14 20 34 30 34 17z m-657 -65 c-7 -25 -23 -37 -23 -16 0 23 11 46 20 41
5 -3 6 -14 3 -25z m687 20 c0 -5 -4 -10 -9 -10 -6 0 -13 5 -16 10 -3 6 1 10 9
10 9 0 16 -4 16 -10z m131 -10 c24 -13 25 -29 2 -25 -10 2 -23 4 -30 4 -7 1
-10 8 -7 16 7 18 9 18 35 5z m-731 -8 c0 -13 -12 -22 -22 -16 -10 6 -1 24 13
24 5 0 9 -4 9 -8z m14 -137 c-4 -8 -14 -20 -23 -25 -16 -8 -17 -4 -7 48 l10
56 13 -32 c7 -17 10 -38 7 -47z m760 -40 c11 -8 15 -15 10 -15 -6 0 -19 7 -30
15 -10 8 -14 14 -9 14 6 0 19 -6 29 -14z m-394 -50 c-4 -22 -8 -34 -9 -26 0 7
-7 11 -14 8 -8 -3 -20 -1 -27 3 -17 11 -50 -6 -50 -24 0 -18 22 -26 52 -20
l23 5 -22 -12 c-28 -15 -30 -45 -4 -52 14 -3 18 -11 14 -26 -3 -11 2 -32 11
-46 19 -30 4 -34 -31 -10 -18 13 -21 20 -13 40 5 13 6 25 2 27 -4 2 -20 22
-36 46 -27 39 -28 44 -14 59 13 12 120 72 124 69 1 -1 -2 -19 -6 -41z m208 -7
c8 -22 8 -35 1 -44 -13 -16 -3 -35 15 -28 14 6 46 -31 46 -53 0 -28 -69 23
-84 62 -5 13 -10 15 -13 8 -5 -15 -49 -18 -57 -4 -8 13 54 89 74 91 3 0 11
-14 18 -32z m-2304 -165 c24 -21 45 -42 45 -48 0 -5 -14 -21 -31 -34 l-30 -24
-29 31 c-16 17 -29 36 -29 41 0 15 -13 14 -29 -1 -10 -11 -10 -8 -2 13 5 15 7
29 4 32 -3 3 -2 10 2 16 13 22 55 10 99 -26z m2539 20 c10 -3 16 -10 14 -16
-5 -17 -24 -19 -39 -4 -10 10 -20 12 -31 5 -20 -11 -23 2 -5 20 7 7 19 10 28
6 8 -3 23 -9 33 -11z m307 -19 c0 -8 -4 -12 -10 -9 -5 3 -10 10 -10 16 0 5 5
9 10 9 6 0 10 -7 10 -16z m-432 -24 c-13 -20 -28 -27 -28 -12 0 10 22 32 32
32 5 0 3 -9 -4 -20z m-258 -10 c0 -11 -40 -24 -47 -16 -4 3 -1 6 5 6 7 0 12 7
12 15 0 9 6 12 15 9 8 -4 15 -10 15 -14z m367 -17 c14 -18 8 -33 -11 -33 -12
0 -46 41 -46 55 0 11 45 -7 57 -22z m77 -58 c9 -14 15 -25 13 -25 -2 0 -14 11
-27 25 -13 14 -19 25 -13 25 6 0 18 -11 27 -25z m-4 -45 c8 -5 12 -11 9 -14
-3 -3 -14 1 -25 9 -21 16 -8 20 16 5z m-3424 -56 c-3 -8 -10 -13 -15 -10 -5 4
-4 16 2 31 9 18 13 20 15 9 2 -8 1 -22 -2 -30z m784 -31 c0 -22 -2 -25 -10
-13 -13 20 -13 40 0 40 6 0 10 -12 10 -27z m-95 -13 c-20 -22 -31 -20 -22 5 4
8 14 15 23 15 16 0 16 -2 -1 -20z m2565 -45 c14 -8 19 -14 10 -14 -8 0 -24 6
-34 14 -25 19 -9 19 24 0z m-246 -91 c10 -27 7 -56 -6 -52 -15 5 -24 68 -10
68 6 0 13 -7 16 -16z m-2729 -14 c9 7 18 10 21 7 3 -3 -12 -15 -34 -26 -49
-25 -55 -39 -29 -68 16 -18 18 -25 7 -38 -11 -13 -15 -10 -31 22 -18 35 -18
73 1 73 5 0 12 9 15 21 5 16 10 18 21 8 11 -9 18 -9 29 1z m564 -13 c5 -12 12
-44 15 -70 8 -59 -9 -63 -25 -4 -7 23 -18 47 -26 53 -16 14 -7 44 13 44 8 0
18 -10 23 -23z m-796 0 c27 1 45 -2 42 -8 -4 -5 -15 -9 -25 -9 -11 0 -24 -8
-29 -19 -8 -15 -4 -28 19 -62 16 -24 30 -47 30 -51 0 -15 -82 82 -101 119 -23
46 -23 47 -1 37 9 -4 38 -7 65 -7z m3305 -7 c1 0 2 -5 2 -10 0 -11 -44 -4 -70
12 -12 7 13 7 68 -2z m-382 -88 c-24 -24 -31 -6 -10 25 16 24 19 26 22 9 2
-10 -3 -25 -12 -34z m-2500 -35 c-3 -12 -5 -26 -5 -30 -1 -5 -5 -5 -11 -2 -11
7 -14 48 -4 58 12 12 24 -4 20 -26z m294 -13 c0 -8 -7 -14 -15 -14 -15 0 -21
21 -9 33 10 9 24 -2 24 -19z m-80 -93 c0 -16 -28 -20 -34 -5 -11 28 -7 35 14
24 11 -6 20 -15 20 -19z m2538 -169 c5 -16 -21 -15 -36 0 -7 7 -12 18 -12 26
0 12 3 12 22 0 12 -8 24 -20 26 -26z m1122 -31 c0 -5 -7 -14 -15 -21 -26 -22
-17 -30 34 -30 80 0 109 -9 125 -41 9 -18 10 -29 4 -29 -16 0 -78 40 -78 51 0
6 -9 5 -21 -1 -15 -9 -24 -8 -35 0 -7 7 -20 10 -28 7 -8 -3 -24 5 -37 19 -12
13 -30 24 -38 25 -23 1 40 28 67 29 12 0 22 -4 22 -9z m171 -4 c-1 -12 -15 -9
-19 4 -3 6 1 10 8 8 6 -3 11 -8 11 -12z m93 -96 c-6 -6 -24 19 -24 34 1 6 7 1
15 -9 8 -11 12 -22 9 -25z m-2584 19 c0 -5 -2 -10 -4 -10 -3 0 -8 5 -11 10 -3
6 -1 10 4 10 6 0 11 -4 11 -10z m160 -59 c0 -6 -4 -13 -10 -16 -5 -3 -10 1
-10 9 0 9 5 16 10 16 6 0 10 -4 10 -9z m-96 -100 c-7 -46 -21 -55 -22 -13 0
28 16 67 24 59 3 -2 2 -23 -2 -46z m1949 -11 c7 -29 1 -24 -17 11 -12 23 -12
28 -2 20 8 -7 16 -21 19 -31z m390 -6 c9 -3 12 -14 9 -29 -2 -14 -8 -22 -13
-19 -5 3 -7 9 -4 14 3 4 -5 10 -18 14 -18 5 -20 8 -7 16 18 12 15 11 33 4z
m-2203 -30 c0 -8 -4 -12 -10 -9 -5 3 -10 10 -10 16 0 5 5 9 10 9 6 0 10 -7 10
-16z m-2218 -39 c-12 -22 -27 -2 -18 22 5 12 10 13 17 6 7 -7 8 -17 1 -28z
m528 -74 c0 -6 -5 -13 -10 -16 -8 -5 -7 -11 1 -21 17 -20 -1 -34 -28 -23 -27
10 -30 44 -5 58 22 13 42 14 42 2z m-464 -43 c5 -8 2 -9 -11 -4 -13 4 -27 -2
-47 -21 -20 -19 -31 -24 -39 -16 -15 15 5 51 34 62 23 9 51 0 63 -21z m94 -64
c0 -16 -32 -35 -50 -29 -20 6 -25 16 -13 28 8 8 63 9 63 1z m3909 -75 c-22
-14 -33 -10 -19 6 7 8 17 12 22 9 6 -4 5 -10 -3 -15z m575 -15 c25 -24 19 -36
-9 -18 -25 16 -33 34 -16 34 5 0 17 -7 25 -16z m-4414 -20 c0 -8 -4 -12 -10
-9 -5 3 -10 13 -10 21 0 8 5 12 10 9 6 -3 10 -13 10 -21z m2070 -26 c0 -25 -3
-29 -10 -18 -13 20 -13 50 0 50 6 0 10 -15 10 -32z m-2200 17 c0 -2 -9 -9 -20
-15 -22 -12 -44 -5 -35 11 6 9 55 13 55 4z m359 -44 c19 -38 19 -41 2 -62 -9
-12 -33 -27 -52 -33 -34 -11 -54 -46 -26 -46 8 0 25 -9 38 -21 l24 -21 -25 7
c-76 20 -97 16 -68 -13 10 -10 8 -17 -9 -33 -17 -18 -24 -19 -43 -9 -13 7 -19
17 -16 27 4 9 -1 17 -14 20 -22 6 -28 33 -6 33 7 0 19 7 26 15 10 12 8 18 -11
34 -21 16 -22 22 -11 45 16 35 29 33 49 -9 9 -19 20 -35 23 -35 3 0 14 17 24
38 21 45 59 102 67 102 4 0 16 -18 28 -39z m1551 -89 c0 -3 -7 1 -16 9 -13 10
-17 10 -24 -1 -6 -10 -9 -8 -12 6 -2 10 -2 27 0 37 4 14 9 12 28 -15 13 -17
24 -34 24 -36z m143 -67 c-10 -7 -22 -11 -27 -8 -5 4 -1 12 9 19 10 7 22 11
27 8 5 -3 1 -12 -9 -19z m-2089 -30 c-19 -36 -28 -42 -38 -26 -6 9 46 72 53
65 2 -2 -4 -20 -15 -39z m4398 -5 c3 -17 1 -33 -4 -36 -8 -5 -9 -1 -12 48 -2
36 11 26 16 -12z m297 -10 c9 0 25 -8 36 -16 19 -14 17 -15 -25 -9 -43 6 -46
5 -48 -17 -3 -37 18 -87 39 -93 23 -8 36 -52 20 -68 -18 -18 -13 -27 19 -27
21 0 28 -4 24 -14 -3 -8 -1 -23 5 -34 10 -19 7 -21 -37 -27 -59 -8 -100 -38
-82 -60 10 -13 9 -15 -9 -15 -13 0 -25 -9 -29 -21 -8 -21 -9 -20 -26 6 -28 42
-56 -7 -36 -61 6 -15 6 -24 0 -24 -6 0 -10 -8 -11 -17 0 -10 -10 3 -22 29 -23
48 -45 78 -89 114 -14 12 -27 26 -29 30 -4 9 -87 73 -137 106 -27 18 -13 35
15 19 23 -11 47 5 58 38 5 17 4 22 -6 19 -8 -3 -14 -12 -14 -21 0 -8 -4 -19
-8 -23 -4 -4 -7 7 -7 25 0 25 -4 32 -14 28 -10 -4 -13 -1 -10 8 10 26 114 49
114 25 0 -5 7 -10 16 -10 9 0 18 -9 21 -19 5 -21 59 -51 91 -51 11 0 27 7 36
15 8 8 19 15 25 15 5 0 13 10 17 23 9 29 25 39 41 25 19 -15 16 0 -7 37 -16
26 -18 38 -10 59 5 14 7 26 4 26 -3 0 -2 5 1 10 4 6 16 3 32 -10 14 -11 33
-20 42 -20z m-399 -14 c0 -15 -18 -31 -26 -23 -7 7 7 37 17 37 5 0 9 -6 9 -14z
m-2487 -24 c-7 -28 -52 -80 -53 -62 0 16 27 60 44 72 15 10 15 10 9 -10z
m-1759 -7 c11 -8 34 -15 52 -15 32 0 32 -1 27 -39 -3 -24 -1 -41 7 -46 20 -13
-19 -45 -56 -45 -36 0 -55 17 -29 26 8 4 20 14 25 24 14 27 -23 70 -60 70 -35
0 -47 15 -23 29 24 14 34 13 57 -4z m1581 -31 c4 -28 3 -35 -4 -24 -10 15 -16
78 -6 69 2 -3 7 -23 10 -45z m2355 6 c27 -23 26 -23 51 -9 18 9 19 8 10 -8 -5
-11 -7 -38 -4 -61 5 -34 8 -40 19 -31 21 17 17 -5 -3 -24 -14 -12 -21 -13 -33
-4 -20 15 -42 66 -35 78 4 5 0 18 -9 30 -14 21 -14 21 -30 -7 l-16 -29 2 35
c3 57 11 62 48 30z m-2552 -38 c2 -7 -3 -12 -12 -12 -9 0 -16 7 -16 16 0 17
22 14 28 -4z m282 -66 c0 -22 -29 -46 -46 -39 -13 5 -10 10 13 29 34 28 33 28
33 10z m2170 -82 c0 -17 -5 -17 -31 -3 -11 5 -17 14 -14 19 8 13 45 0 45 -16z
m-2181 -8 c13 -14 20 -29 16 -35 -9 -15 -21 -6 -39 29 -18 36 -8 39 23 6z
m201 -56 c0 -20 -2 -22 -10 -10 -5 8 -10 26 -10 40 0 20 2 22 10 10 5 -8 10
-26 10 -40z m2186 -25 c-26 -19 -42 -19 -26 0 7 8 20 15 29 15 13 -1 13 -3 -3
-15z m1801 -41 c35 -27 37 -46 3 -37 -28 7 -66 63 -43 63 3 0 21 -12 40 -26z
m-1057 -4 c-6 -11 -18 -20 -27 -20 -14 0 -14 2 2 20 10 11 22 20 27 20 5 0 4
-9 -2 -20z m-2283 -25 c-26 -23 -47 -26 -47 -6 0 10 40 30 60 30 10 0 5 -9
-13 -24z m-1320 9 c-3 -3 -12 -4 -19 -1 -8 3 -5 6 6 6 11 1 17 -2 13 -5z m623
-42 c0 -33 -16 -18 -26 23 -7 27 -6 29 9 16 10 -7 17 -25 17 -39z m-272 11
c-22 -5 -24 -23 -3 -23 17 0 38 -35 33 -56 -5 -23 -55 23 -63 59 -7 25 -5 27
21 26 17 -1 22 -3 12 -6z m2358 -40 c13 -14 22 -28 20 -30 -9 -9 -61 23 -64
40 -5 25 15 21 44 -10z m-1628 -3 c22 -11 45 -20 50 -20 5 0 14 -6 21 -13 8
-11 5 -13 -20 -9 -23 3 -35 -2 -55 -23 -26 -28 -47 -28 -24 0 11 13 8 17 -18
26 -30 10 -31 11 -16 35 9 13 17 24 18 24 1 0 21 -9 44 -20z m-1258 -27 c7
-21 16 -42 21 -47 5 -6 9 -18 9 -28 0 -15 -4 -17 -17 -10 -12 7 -21 5 -33 -10
-15 -19 -16 -19 -35 2 -20 22 -20 22 0 38 11 10 21 28 21 42 3 45 4 50 13 50
5 0 15 -17 21 -37z m4987 -11 c-18 -4 -67 26 -67 40 0 5 19 -1 41 -14 26 -14
36 -24 26 -26z m-5327 26 c16 -10 24 -10 40 0 17 10 21 8 35 -17 11 -23 12
-31 2 -34 -17 -7 31 -41 68 -47 20 -4 29 -10 26 -20 -3 -8 -5 -35 -5 -60 0
-25 -5 -48 -10 -52 -5 -3 -2 -20 7 -41 24 -50 21 -56 -8 -17 -14 19 -25 38
-25 42 0 5 -9 28 -20 50 -11 23 -20 49 -20 58 0 19 -73 99 -104 115 -22 11
-33 35 -17 35 6 0 20 -6 31 -12z m1446 -4 c-3 -9 -6 -25 -7 -37 -1 -20 -2 -20
-8 3 -9 28 -4 50 11 50 6 0 7 -7 4 -16z m-1791 -24 c3 -5 -8 -16 -25 -25 -32
-17 -36 -14 -20 16 11 20 35 25 45 9z m4239 -16 c11 -27 7 -37 -9 -24 -16 14
-20 40 -6 40 5 0 12 -7 15 -16z m-2374 -23 c0 -28 -17 -35 -29 -13 -11 21 -6
32 16 32 7 0 13 -9 13 -19z m2500 9 c0 -5 -7 -10 -16 -10 -8 0 -12 5 -9 10 3
6 10 10 16 10 5 0 9 -4 9 -10z m-2980 -36 c0 -8 -4 -12 -10 -9 -5 3 -10 13
-10 21 0 8 5 12 10 9 6 -3 10 -13 10 -21z m1593 11 c9 -8 13 -24 10 -35 -6
-23 -23 -27 -23 -6 0 20 -29 48 -42 40 -5 -3 -7 -18 -3 -33 6 -25 5 -25 -11
-9 -17 17 -17 18 1 38 21 24 48 26 68 5z m1187 -5 l35 -19 -35 6 c-37 6 -78
33 -50 33 8 -1 31 -10 50 -20z m-1970 -5 c0 -8 5 -15 11 -15 7 0 9 -12 5 -36
-9 -44 5 -63 42 -57 26 4 26 4 8 -11 -11 -9 -28 -16 -38 -16 -24 0 -23 -9 4
-38 21 -22 22 -24 5 -33 -20 -12 -22 -40 -5 -57 10 -10 4 -12 -25 -10 -24 2
-36 7 -33 15 21 53 27 107 22 170 -4 40 -9 80 -12 88 -4 8 -1 15 5 15 6 0 11
-7 11 -15z m1393 -37 c6 -22 5 -22 -8 -4 -17 22 -20 40 -6 32 5 -3 11 -16 14
-28z m-1250 8 c3 -8 -1 -20 -9 -26 -12 -10 -14 -8 -14 14 0 28 14 35 23 12z
m2491 -4 c19 -14 136 -117 180 -157 6 -6 31 -26 56 -44 25 -19 59 -47 75 -62
17 -15 53 -34 80 -42 38 -11 46 -16 32 -22 -41 -17 -161 51 -248 141 -81 83
-151 128 -188 121 -34 -7 -47 11 -26 39 7 10 11 24 8 31 -7 18 5 16 31 -5z
m-1769 -22 c19 -8 19 -9 -2 -9 -12 -1 -25 4 -28 9 -7 12 2 12 30 0z m-1585
-23 c0 -17 -10 -28 -37 -41 -35 -17 -36 -17 -23 1 21 27 53 63 57 63 2 0 3
-10 3 -23z m-1030 -69 c0 -4 -9 -8 -21 -8 -13 0 -25 11 -35 35 -21 50 -18 53
21 15 19 -19 35 -38 35 -42z m402 7 c-6 -41 -9 -50 -20 -49 -7 1 -22 2 -34 3
-19 1 -20 3 -8 11 12 8 13 13 3 29 -15 24 -6 33 32 29 23 -2 29 -7 27 -23z
m4356 -79 c30 -16 43 -36 23 -36 -15 0 -134 94 -139 110 -3 7 15 -2 39 -22 24
-19 59 -43 77 -52z m-3960 15 c10 -6 9 -13 -7 -32 -19 -23 -19 -24 -40 -5 -29
27 -27 46 7 46 15 0 33 -4 40 -9z m162 -11 c0 -11 -6 -20 -14 -20 -18 0 -28
-15 -31 -44 -1 -11 -3 -24 -4 -28 0 -5 -12 -8 -26 -8 -23 0 -24 2 -15 21 12
21 79 99 86 99 2 0 4 -9 4 -20z m-949 -30 c11 0 19 -4 19 -10 0 -5 -7 -10 -15
-10 -24 0 -18 -44 10 -76 l25 -29 -22 -5 c-22 -6 -38 -30 -19 -30 6 0 11 -7
11 -15 0 -22 -21 -18 -27 5 -7 28 -24 25 -58 -10 -16 -16 -34 -30 -41 -30 -26
0 -25 22 0 49 15 16 26 34 24 42 -3 15 13 16 50 5 18 -6 22 -4 22 12 0 19 -30
53 -30 36 -1 -5 -9 7 -19 26 -22 43 -17 54 21 46 17 -3 39 -6 49 -6z m3133 -6
c9 -12 17 -13 39 -5 25 10 27 9 18 -7 -12 -23 20 -82 50 -89 16 -5 28 -23 14
-23 -10 0 -145 121 -145 130 0 15 11 12 24 -6z m1091 5 c11 -17 -1 -21 -15 -4
-8 9 -8 15 -2 15 6 0 14 -5 17 -11z m-4115 -54 c12 -19 28 -35 35 -35 27 0 63
-23 74 -46 8 -19 7 -27 -8 -41 -16 -15 -18 -25 -11 -60 5 -33 4 -43 -6 -43 -7
0 -16 5 -19 10 -4 6 -10 8 -15 5 -4 -3 -13 9 -19 26 -6 18 -17 37 -25 43 -9 7
-16 36 -19 76 -2 36 -7 73 -12 83 -12 29 2 19 25 -18z m4480 -10 c0 -8 -4 -15
-9 -15 -13 0 -22 16 -14 24 11 11 23 6 23 -9z m-351 -22 c20 -14 38 -28 40
-30 3 -2 0 -8 -5 -13 -10 -10 -84 43 -84 61 0 15 11 11 49 -18z m-2404 -23 c7
0 18 -7 25 -15 11 -13 10 -14 -3 -9 -9 3 -29 -3 -44 -13 -31 -21 -63 -35 -63
-27 0 3 9 17 20 33 12 15 22 38 23 50 l1 23 14 -21 c8 -12 20 -21 27 -21z
m-508 -14 c-4 -9 -10 -16 -16 -16 -11 0 -22 40 -14 53 9 14 36 -20 30 -37z
m-183 -23 c-21 -15 -44 -17 -44 -4 0 9 21 17 49 17 9 1 8 -4 -5 -13z m3556
-35 c0 -14 -19 1 -31 25 -12 22 -12 22 10 3 11 -11 21 -23 21 -28z m-2860 -40
c0 -15 -20 -8 -30 11 -17 33 -11 47 10 21 11 -14 20 -28 20 -32z m-770 27 c7
-8 18 -15 25 -15 17 0 27 -28 14 -36 -6 -3 -9 -20 -6 -38 2 -19 -3 -45 -15
-68 -20 -38 -18 -58 8 -58 16 0 46 -15 83 -43 17 -12 27 -14 36 -7 15 12 41 4
49 -15 3 -8 27 -26 53 -40 31 -16 38 -23 22 -19 -37 8 -43 -8 -19 -48 10 -18
27 -46 36 -63 16 -29 16 -29 -1 -15 -17 14 -18 13 -13 -7 12 -47 -9 -21 -26
32 -18 58 -76 125 -108 125 -20 0 -63 -38 -54 -47 3 -3 12 0 21 7 22 18 27 8
14 -29 -9 -25 -14 -29 -24 -21 -10 8 -20 8 -36 0 -20 -11 -21 -10 -15 6 4 10
10 38 13 61 5 37 3 43 -10 37 -9 -3 -21 -22 -28 -42 -14 -46 -29 -63 -29 -36
0 11 -11 46 -23 78 -22 54 -28 124 -13 163 9 21 29 15 23 -7 -7 -27 7 -25 21
3 23 47 24 67 5 67 -12 0 -18 8 -19 23 -1 12 -5 32 -9 45 -8 25 6 30 25 7z
m-150 -96 c0 -10 -4 -19 -10 -19 -5 0 -10 12 -10 26 0 14 4 23 10 19 6 -3 10
-15 10 -26z m2340 -39 c13 -8 13 -10 -2 -10 -9 0 -20 5 -23 10 -8 13 5 13 25
0z m-3372 -48 c2 -7 -3 -12 -12 -12 -9 0 -16 7 -16 16 0 17 22 14 28 -4z
m2776 -29 c-13 -14 -16 -14 -29 3 -22 29 -18 34 15 23 27 -10 28 -12 14 -26z
m-1864 -34 c-7 -11 -14 -18 -17 -15 -8 8 5 36 17 36 7 0 7 -6 0 -21z m520 5
c0 -9 -5 -14 -12 -12 -18 6 -21 28 -4 28 9 0 16 -7 16 -16z m1255 -69 c22 -11
63 -19 92 -19 51 -1 51 -1 46 -29 -7 -35 26 -73 71 -83 33 -6 86 -50 86 -69 0
-7 9 -20 20 -30 17 -16 28 -45 16 -45 -17 0 -117 55 -136 75 -13 14 -31 25
-41 25 -9 0 -20 6 -22 13 -3 6 -6 -9 -6 -35 -1 -27 -3 -48 -6 -48 -3 0 -18 8
-33 18 -15 10 -59 40 -98 65 -39 26 -79 56 -88 66 -22 25 -26 62 -10 92 12 24
13 23 34 -23 31 -71 55 -64 26 7 -13 30 -11 51 3 42 3 -2 24 -12 46 -22z
m-158 -81 c4 -65 -10 -118 -30 -111 -11 3 -12 18 -6 97 1 14 -1 38 -5 53 -6
25 -4 28 15 25 18 -3 22 -11 26 -64z m444 -31 c-9 -16 -10 -14 -11 12 0 21 3
26 11 18 8 -8 8 -16 0 -30z m-1749 -37 c14 -20 9 -56 -7 -50 -9 4 -16 -3 -21
-20 -3 -14 -10 -26 -14 -26 -11 0 1 54 14 62 8 5 7 13 -1 28 -7 11 -13 22 -13
25 0 8 34 -8 42 -19z m-229 -20 c3 -8 -3 -31 -13 -52 -15 -27 -17 -42 -9 -56
21 -38 3 -38 -36 2 -28 28 -34 40 -22 40 9 0 21 9 27 20 6 11 8 20 5 20 -3 0
-1 9 5 20 12 23 35 26 43 6z m842 -17 c14 -22 -3 -18 -26 7 -23 25 -23 26 -2
15 12 -6 25 -16 28 -22z m266 -55 c7 -9 38 -30 68 -47 59 -33 53 -47 -11 -26
-36 12 -88 59 -88 80 0 14 16 11 31 -7z m754 -12 c2 -12 0 -24 -4 -26 -4 -3
-8 9 -9 27 -3 34 6 33 13 -1z m-895 -2 c62 -24 58 -25 63 3 3 19 6 17 21 -18
10 -22 27 -48 39 -58 35 -28 132 -75 171 -82 19 -4 43 -14 53 -22 17 -14 17
-14 -6 -9 -17 3 -25 0 -28 -15 -7 -24 -14 -24 -43 1 -16 14 -27 17 -34 10 -6
-6 -26 6 -58 36 -36 34 -52 43 -64 36 -9 -5 -27 -7 -40 -4 -19 3 -24 10 -22
31 3 25 1 26 -45 27 -35 0 -54 7 -70 22 -12 12 -16 22 -9 22 7 0 12 9 12 20 0
11 2 20 5 20 2 0 27 -9 55 -20z m-810 -25 c13 -14 21 -27 18 -30 -7 -7 -58 34
-58 46 0 16 16 10 40 -16z m2003 8 c-26 -5 -31 -39 -12 -75 11 -20 12 -20 25
10 14 35 34 41 54 16 8 -8 9 -14 4 -13 -23 4 -33 -3 -53 -36 -11 -19 -26 -35
-32 -35 -18 0 -49 41 -49 64 1 56 16 74 65 73 16 0 16 -1 -2 -4z m-447 -41
c-14 -14 -16 -14 -16 -1 0 20 23 44 29 28 2 -6 -4 -18 -13 -27z m29 -42 c4 -6
-4 -22 -18 -36 -21 -21 -26 -22 -31 -8 -13 33 31 73 49 44z m-252 -84 c27 -4
69 -16 93 -26 24 -11 48 -20 52 -20 12 -2 2 -34 -15 -47 -18 -14 -35 -8 -139
43 -39 19 -88 51 -110 70 l-39 34 55 -24 c30 -13 77 -26 103 -30z m-894 28
c-19 -18 -75 -22 -91 -6 -9 9 -2 12 30 10 23 -1 45 2 49 5 3 4 11 7 17 7 6 0
3 -7 -5 -16z m-608 -44 c46 -42 26 -45 -24 -3 -16 13 -33 23 -38 23 -6 0 -7 5
-4 10 10 16 20 12 66 -30z m3014 -9 c-10 -16 -25 -3 -25 22 0 20 1 20 16 5 9
-9 13 -21 9 -27z m-2835 -31 c0 -5 13 -11 30 -15 29 -6 29 -7 13 -31 -15 -23
-19 -43 -22 -98 -2 -32 -11 -11 -16 35 -7 63 -16 102 -28 117 -7 9 -6 11 7 6
9 -3 16 -10 16 -14z m715 1 c-3 -6 -11 -11 -17 -11 -6 0 -6 6 2 15 14 17 26
13 15 -4z m1395 -107 c0 -42 -2 -45 -21 -39 -12 4 -29 9 -38 10 -28 6 -27 7 9
14 29 5 36 11 38 34 5 42 12 32 12 -19z m-708 14 c6 -16 -17 -74 -33 -83 -8
-6 -8 -2 0 13 6 11 11 34 11 51 0 31 14 42 22 19z m233 -48 c1 -11 -4 -20 -12
-20 -13 0 -18 31 -6 43 9 10 16 0 18 -23z m-133 -70 c3 -17 1 -33 -4 -36 -4
-3 -8 6 -8 20 0 13 -3 32 -7 42 -4 11 -3 15 4 11 6 -4 13 -21 15 -37z m-1126
-22 c10 -24 21 -46 22 -50 6 -13 -25 -9 -36 5 -13 16 -24 87 -13 87 4 0 16
-19 27 -42z m374 -47 c0 -10 -6 -24 -14 -31 -8 -6 -12 -18 -9 -26 3 -8 -1 -14
-11 -14 -22 0 -20 17 4 47 11 14 17 29 14 34 -3 5 0 9 5 9 6 0 11 -8 11 -19z
m900 -42 c0 -16 -4 -29 -10 -29 -5 0 -10 16 -10 36 0 21 4 33 10 29 6 -3 10
-19 10 -36z"/>
<path d="M3426 6045 c-8 -23 -8 -35 3 -35 13 0 23 32 13 42 -6 6 -12 3 -16 -7z"/>
<path d="M2640 6075 c-10 -12 -10 -15 3 -15 8 0 17 7 21 15 3 8 2 15 -3 15 -5
0 -14 -7 -21 -15z"/>
<path d="M2789 6043 c-3 -55 -6 -78 -14 -96 -4 -9 -4 -30 -1 -45 4 -15 9 -40
11 -55 5 -44 14 -45 51 -4 l35 38 -25 30 c-15 17 -26 36 -27 42 0 7 -2 28 -4
47 -1 19 -3 43 -4 53 -2 28 -21 19 -22 -10z"/>
<path d="M2720 5971 c0 -12 6 -21 15 -21 8 0 15 4 15 9 0 5 -7 14 -15 21 -13
10 -15 9 -15 -9z"/>
<path d="M2670 5910 c0 -11 2 -20 4 -20 2 0 6 9 9 20 3 11 1 20 -4 20 -5 0 -9
-9 -9 -20z"/>
<path d="M2960 5848 c0 -18 18 -34 28 -24 3 4 -2 14 -11 23 -16 16 -17 16 -17
1z"/>
<path d="M4320 4930 c0 -5 7 -10 16 -10 8 0 12 5 9 10 -3 6 -10 10 -16 10 -5
0 -9 -4 -9 -10z"/>
<path d="M1123 4056 c4 -10 7 -22 7 -27 0 -5 5 -9 11 -9 15 0 7 43 -10 48 -10
3 -12 0 -8 -12z"/>
<path d="M4988 2148 c9 -9 15 -9 24 0 9 9 7 12 -12 12 -19 0 -21 -3 -12 -12z"/>
<path d="M4782 2068 c5 -15 48 -24 48 -10 0 10 -23 22 -42 22 -5 0 -8 -6 -6
-12z"/>
<path d="M4406 2202 c-3 -5 1 -18 9 -28 14 -18 14 -18 15 3 0 23 -15 39 -24
25z"/>
<path d="M3036 722 c-7 -11 6 -27 27 -35 11 -4 17 -1 17 8 0 17 -36 39 -44 27z"/>
<path d="M3150 640 c0 -5 7 -10 15 -10 8 0 15 5 15 10 0 6 -7 10 -15 10 -8 0
-15 -4 -15 -10z"/>
<path d="M3010 6895 c-7 -8 -8 -15 -2 -15 5 0 15 7 22 15 7 8 8 15 2 15 -5 0
-15 -7 -22 -15z"/>
<path d="M3100 6900 c-11 -7 -12 -17 -4 -47 12 -48 27 -49 35 0 6 41 -7 62
-31 47z"/>
<path d="M3163 6863 c-18 -7 -16 -23 2 -23 8 0 15 7 15 15 0 8 -1 15 -2 14 -2
0 -9 -3 -15 -6z"/>
<path d="M2847 6803 c-12 -11 -8 -23 8 -23 8 0 15 7 15 15 0 16 -12 20 -23 8z"/>
<path d="M2530 6710 c-13 -24 2 -27 24 -4 20 19 20 24 1 24 -8 0 -19 -9 -25
-20z"/>
<path d="M2485 6689 c-10 -15 3 -25 16 -12 7 7 7 13 1 17 -6 3 -14 1 -17 -5z"/>
<path d="M2249 6623 c-12 -15 -12 -16 4 -10 10 4 23 7 28 7 5 0 9 5 9 10 0 16
-26 12 -41 -7z"/>
<path d="M4415 6580 c-8 -13 15 -24 27 -12 6 6 4 11 -6 15 -8 3 -18 2 -21 -3z"/>
<path d="M4430 6540 c0 -5 7 -10 15 -10 8 0 15 5 15 10 0 6 -7 10 -15 10 -8 0
-15 -4 -15 -10z"/>
<path d="M1910 6440 c0 -5 7 -10 16 -10 8 0 12 5 9 10 -3 6 -10 10 -16 10 -5
0 -9 -4 -9 -10z"/>
<path d="M5430 6241 c0 -5 7 -12 16 -15 24 -9 28 -7 14 9 -14 17 -30 20 -30 6z"/>
<path d="M5960 5711 c0 -12 39 -25 48 -16 7 7 -17 25 -35 25 -7 0 -13 -4 -13
-9z"/>
<path d="M5904 5635 c-15 -10 -13 -15 18 -38 58 -44 99 -31 63 20 -18 25 -59
35 -81 18z"/>
<path d="M5130 5624 c0 -8 5 -12 10 -9 6 3 10 10 10 16 0 5 -4 9 -10 9 -5 0
-10 -7 -10 -16z"/>
<path d="M5937 5523 c-12 -12 -7 -33 8 -33 17 0 19 9 7 28 -5 7 -11 9 -15 5z"/>
<path d="M5323 5493 c-15 -5 -17 -49 -4 -57 5 -3 19 2 32 12 35 29 14 63 -28
45z"/>
<path d="M5996 5482 c-3 -6 1 -13 10 -16 23 -9 28 -2 10 13 -8 7 -17 8 -20 3z"/>
<path d="M5650 5351 c0 -25 6 -27 13 -6 4 8 2 17 -3 20 -6 4 -10 -3 -10 -14z"/>
<path d="M5693 5333 c2 -45 28 -56 45 -19 9 20 8 27 -7 40 -29 26 -40 19 -38
-21z"/>
<path d="M5600 5242 c0 -4 7 -18 16 -30 18 -27 46 -30 37 -4 -10 28 -53 56
-53 34z"/>
<path d="M6026 5192 c-3 -6 -1 -14 5 -17 15 -10 25 3 12 16 -7 7 -13 7 -17 1z"/>
<path d="M5495 5092 c9 -39 22 -49 40 -31 13 13 13 18 1 34 -7 10 -21 20 -31
21 -14 2 -16 -3 -10 -24z"/>
<path d="M5121 5071 c-22 -14 -5 -57 28 -71 29 -12 51 -8 51 10 0 11 -49 70
-58 70 -4 0 -13 -4 -21 -9z"/>
<path d="M5573 5053 c-21 -8 -15 -47 13 -84 14 -19 30 -44 35 -56 11 -28 23
-29 50 -2 l21 21 -41 31 c-41 31 -41 32 -20 48 20 15 20 17 4 32 -16 17 -38
20 -62 10z"/>
<path d="M6241 4945 c-17 -47 -5 -61 54 -64 40 -2 45 0 45 20 0 22 -54 79 -75
79 -6 0 -17 -16 -24 -35z"/>
<path d="M2053 4896 c-24 -16 -43 -37 -43 -46 0 -9 -5 -21 -12 -28 -6 -6 -9
-15 -5 -19 13 -13 113 96 105 115 -2 5 -22 -5 -45 -22z"/>
<path d="M6295 4850 c-3 -5 8 -16 25 -25 30 -15 36 -11 24 19 -7 18 -39 22
-49 6z"/>
<path d="M2322 4838 c-17 -22 -24 -57 -14 -73 8 -15 10 -15 21 -1 8 9 10 16 7
16 -4 0 0 10 8 22 9 12 16 28 16 35 0 17 -25 17 -38 1z"/>
<path d="M2360 4810 c-9 -16 -7 -24 8 -41 16 -16 21 -17 25 -6 3 8 4 23 2 33
-2 11 -4 22 -4 27 -2 14 -20 7 -31 -13z"/>
<path d="M6338 4793 c-10 -3 -18 -10 -18 -16 1 -17 69 -94 71 -79 1 6 2 18 3
25 3 14 -20 64 -31 70 -5 2 -16 2 -25 0z"/>
<path d="M5361 4771 c-11 -7 -9 -14 12 -35 14 -14 33 -26 42 -26 19 0 19 4 0
40 -16 31 -30 36 -54 21z"/>
<path d="M6440 4750 c0 -21 25 -50 44 -50 8 0 19 6 25 13 8 11 6 18 -8 31 -28
25 -61 29 -61 6z"/>
<path d="M2403 4723 c-7 -3 -13 -10 -13 -18 0 -14 47 -18 55 -4 7 10 -26 28
-42 22z"/>
<path d="M2266 4704 c-9 -24 -8 -26 14 -14 11 6 18 15 15 21 -9 14 -22 11 -29
-7z"/>
<path d="M2486 4713 c-11 -11 -6 -23 9 -23 8 0 15 4 15 9 0 13 -16 22 -24 14z"/>
<path d="M2506 4671 c-3 -4 -17 -6 -31 -3 -21 4 -25 1 -25 -21 0 -14 4 -28 8
-31 12 -7 72 34 72 50 0 15 -16 19 -24 5z"/>
<path d="M6447 4673 c-4 -3 -7 -14 -7 -24 0 -18 16 -30 64 -49 23 -8 26 -7 26
11 0 37 -62 84 -83 62z"/>
<path d="M5535 4640 c8 -24 -3 -25 -50 -6 -37 16 -49 12 -35 -14 9 -18 18 -60
19 -97 1 -24 34 -33 46 -13 8 13 45 13 45 1 0 -5 19 -12 41 -16 23 -4 58 -14
77 -22 26 -11 37 -12 46 -3 8 9 0 21 -33 48 -24 21 -68 61 -97 90 -57 56 -69
63 -59 32z"/>
<path d="M6314 4585 c-13 -33 6 -170 30 -215 13 -25 26 -70 29 -100 7 -59 30
-142 50 -177 18 -31 144 -126 161 -120 9 3 12 15 9 31 -3 16 -1 26 6 26 6 0
21 16 33 36 19 32 23 34 29 18 3 -10 5 -22 2 -26 -2 -5 3 -8 11 -8 18 0 25 28
14 58 -9 26 -2 46 13 37 5 -4 9 -2 9 3 0 5 -16 22 -35 36 -36 27 -46 61 -24
83 14 14 8 55 -8 61 -9 2 -13 -7 -13 -27 0 -39 -11 -40 -28 -2 -7 17 -23 32
-37 35 -18 5 -25 13 -25 31 0 14 -4 25 -9 25 -5 0 -12 9 -16 19 -8 26 -64 86
-72 78 -8 -8 26 -135 38 -143 5 -3 7 -15 4 -27 -2 -12 -6 -36 -9 -53 -4 -33
-33 -84 -46 -84 -5 0 -5 12 -1 28 8 30 7 51 -3 103 -3 19 -9 54 -12 79 -7 52
-8 53 -36 57 -29 5 -28 3 -16 51 8 31 7 49 -2 72 -13 32 -37 40 -46 15z m226
-344 c0 -17 -12 -41 -20 -41 -11 0 -21 30 -14 41 7 12 34 12 34 0z m-50 -56
c0 -8 -7 -15 -16 -15 -14 0 -14 3 -4 15 7 8 14 15 16 15 2 0 4 -7 4 -15z m55
-35 c3 -5 -4 -19 -15 -30 -14 -14 -19 -29 -16 -48 5 -26 4 -26 -9 -8 -27 36
-14 96 21 96 7 0 15 -4 19 -10z"/>
<path d="M2582 4568 c2 -6 10 -14 16 -16 7 -2 10 2 6 12 -7 18 -28 22 -22 4z"/>
<path d="M6405 4561 c-3 -5 4 -13 16 -16 23 -8 34 -1 24 14 -8 13 -32 14 -40
2z"/>
<path d="M6580 4545 c0 -8 -11 -20 -25 -25 -26 -10 -32 -24 -16 -35 6 -3 8
-14 6 -25 -2 -11 1 -23 7 -26 20 -12 70 -6 89 12 18 16 17 18 -14 61 -37 52
-47 60 -47 38z"/>
<path d="M6690 4499 c0 -34 15 -69 30 -69 13 0 13 30 -1 69 -14 40 -29 40 -29
0z"/>
<path d="M242 4468 c-17 -17 -15 -35 4 -42 23 -9 37 3 23 20 -9 11 -8 14 5 14
9 0 16 5 16 10 0 14 -33 13 -48 -2z"/>
<path d="M5774 4456 c-3 -8 -4 -25 -2 -38 4 -32 42 -32 46 0 6 38 -32 70 -44
38z"/>
<path d="M5518 4453 c-23 -6 -23 -16 2 -38 18 -16 18 -19 4 -30 -14 -9 -14
-17 -4 -56 23 -88 52 -169 62 -175 11 -7 58 15 58 28 0 4 -7 8 -15 8 -22 0
-18 17 6 30 11 7 25 24 31 40 6 19 15 27 24 23 8 -3 14 0 14 5 0 17 -42 42
-70 42 -48 0 -70 37 -39 63 10 9 19 21 19 26 0 22 -54 42 -92 34z"/>
<path d="M5917 4444 c-3 -3 1 -17 10 -31 11 -17 19 -21 27 -13 7 7 4 16 -10
30 -11 11 -23 18 -27 14z"/>
<path d="M6667 4434 c-13 -14 58 -183 84 -199 22 -14 39 18 29 56 -19 68 -93
163 -113 143z"/>
<path d="M110 4422 c0 -5 7 -15 15 -22 8 -7 15 -8 15 -2 0 5 -7 15 -15 22 -8
7 -15 8 -15 2z"/>
<path d="M5816 4364 c-18 -18 -18 -45 1 -51 14 -5 55 37 50 52 -6 17 -34 17
-51 -1z"/>
<path d="M140 4362 c0 -12 63 -92 72 -92 20 0 -2 50 -38 88 -14 14 -34 16 -34
4z"/>
<path d="M5917 4363 c-9 -9 12 -33 29 -33 17 0 18 12 2 28 -14 14 -22 15 -31
5z"/>
<path d="M6286 4321 c-7 -11 30 -58 39 -50 7 8 -15 59 -26 59 -4 0 -10 -4 -13
-9z"/>
<path d="M5942 4287 c-14 -17 2 -42 22 -34 25 10 46 -3 46 -28 0 -16 -10 -28
-36 -40 -19 -9 -39 -28 -45 -42 -5 -14 -17 -27 -27 -30 -10 -2 -22 -14 -27
-25 -14 -29 -72 -58 -118 -58 -67 0 -111 -52 -75 -88 17 -17 73 -15 88 3 19
23 26 19 60 -39 17 -30 36 -56 42 -58 8 -3 7 -11 -1 -27 -15 -27 -6 -39 29
-42 51 -4 56 -1 52 35 -4 32 -3 33 25 29 15 -3 39 -16 53 -28 14 -13 57 -43
95 -68 70 -44 115 -87 128 -120 11 -28 36 -20 45 16 l8 32 15 -30 c9 -17 21
-29 31 -27 9 1 20 -10 28 -28 7 -16 15 -30 19 -30 4 0 32 -25 64 -56 57 -56
61 -58 116 -43 13 4 82 -82 81 -100 -1 -3 -16 -16 -35 -28 l-34 -22 -52 50
c-52 49 -79 61 -79 35 0 -26 -41 -5 -57 30 -13 27 -14 36 -3 48 7 9 17 13 22
9 6 -3 9 0 6 8 -7 21 -66 23 -88 4 -15 -14 -18 -14 -30 0 -10 13 -9 15 9 15
16 0 21 6 21 28 0 16 -6 37 -14 48 -14 19 -15 19 -48 -5 -18 -14 -37 -30 -41
-38 -9 -15 -55 -17 -76 -4 -8 5 -12 18 -9 29 4 15 -4 29 -33 51 -22 18 -40 27
-44 21 -12 -19 -21 -10 -44 40 -23 50 -52 69 -86 56 -23 -8 -18 -20 21 -59
l36 -34 -32 -5 c-32 -5 -33 -5 -83 67 -15 21 -21 23 -38 14 -12 -6 -32 -8 -45
-5 -22 6 -24 3 -24 -27 0 -41 -7 -49 -32 -36 -11 6 -22 8 -26 5 -8 -8 26 -142
47 -185 9 -19 25 -36 35 -37 11 -2 32 -12 47 -23 38 -28 46 -26 46 9 0 49 17
57 53 26 17 -14 38 -26 46 -26 8 0 14 -7 14 -15 0 -20 -19 -19 -42 2 -17 15
-18 15 -18 -1 0 -10 -5 -27 -12 -39 -7 -12 -13 -28 -14 -34 -3 -18 15 -16 22
2 13 32 19 12 21 -63 l3 -77 -20 25 c-11 14 -20 33 -20 42 0 11 -5 15 -15 12
-15 -6 -19 0 -29 48 -7 32 -50 78 -73 78 -22 0 -12 -92 14 -128 11 -15 23 -49
26 -76 8 -54 41 -127 69 -153 16 -14 16 -17 2 -27 -14 -11 -13 -25 16 -137 18
-68 39 -137 48 -154 8 -16 16 -42 17 -57 4 -44 26 -88 44 -88 10 0 33 -26 55
-59 21 -33 49 -72 62 -88 13 -15 24 -32 24 -38 0 -5 23 -34 50 -64 27 -30 48
-59 47 -64 -2 -12 65 -48 156 -83 71 -27 87 -40 38 -31 -48 10 -133 -3 -127
-19 3 -8 1 -14 -4 -14 -6 0 -10 5 -10 10 0 6 -4 10 -10 10 -21 0 -9 -38 17
-56 15 -9 53 -44 83 -76 35 -37 64 -58 78 -58 21 0 20 2 -14 47 -19 25 -47 55
-62 66 -15 12 -29 22 -32 24 -2 2 2 8 9 13 18 10 40 2 68 -25 12 -12 41 -30
63 -40 l41 -18 17 24 c26 37 24 46 -30 104 -44 49 -47 54 -23 45 15 -6 30 -9
32 -6 7 7 -16 46 -53 93 -19 23 -34 51 -34 62 0 25 -27 40 -81 45 -44 5 -72
26 -84 64 -5 16 -2 22 9 22 12 0 16 11 16 45 0 46 10 54 39 36 9 -6 11 -16 6
-27 -4 -11 -9 -31 -12 -46 -3 -22 0 -28 20 -33 14 -4 30 -18 36 -32 8 -18 18
-24 39 -23 50 4 54 1 52 -32 -4 -60 0 -67 59 -112 33 -25 62 -46 66 -46 19 0
88 188 109 300 8 41 26 111 39 155 14 44 27 98 31 120 3 22 8 51 11 65 5 24
19 110 29 180 23 162 28 316 10 313 -7 -1 -19 17 -28 40 -9 23 -34 64 -56 91
-28 33 -40 58 -40 80 -1 38 -13 55 -63 85 -44 27 -69 17 -61 -26 3 -14 6 -45
7 -69 1 -24 5 -44 9 -44 15 0 22 26 19 72 -1 26 0 48 3 48 4 0 15 -14 25 -31
l19 -32 -25 -41 c-34 -54 -63 -73 -63 -41 0 7 -6 18 -14 22 -7 4 -18 18 -24
30 -7 12 -26 24 -44 28 -18 4 -45 16 -61 27 -32 23 -65 85 -59 111 3 15 -1 17
-22 11 -21 -5 -27 0 -46 36 -25 50 -19 62 14 31 30 -28 61 -24 61 7 0 12 4 22
8 22 4 0 11 0 16 0 5 0 17 -18 27 -40 10 -22 24 -40 31 -40 7 0 13 2 13 5 0
11 -26 52 -61 95 -71 90 -92 128 -86 159 5 23 2 31 -11 33 -22 5 -72 -11 -72
-23 0 -20 -28 -7 -40 19 l-14 27 -4 -25 c-6 -41 -19 -44 -31 -7 -13 37 -38 54
-55 37 -16 -16 -40 -12 -53 9 -12 18 -18 49 -27 126 -7 60 -14 72 -64 105 -51
34 -55 35 -70 17z m297 -563 c3 -16 1 -17 -13 -5 -19 16 -21 34 -3 29 6 -3 14
-13 16 -24z m-305 -208 c-3 -9 -10 -16 -15 -16 -6 0 -5 9 1 21 13 24 24 20 14
-5z m36 -32 c0 -8 -4 -12 -10 -9 -5 3 -10 13 -10 21 0 8 5 12 10 9 6 -3 10
-13 10 -21z m223 -9 c-1 -16 2 -34 8 -41 15 -18 0 -44 -26 -44 -21 0 -29 13
-41 67 -4 19 27 54 44 51 12 -3 16 -13 15 -33z m-107 -76 c30 -18 45 -39 29
-39 -16 0 -63 31 -68 45 -8 20 -1 19 39 -6z m744 -123 c0 -41 -19 -61 -43 -43
-16 11 -16 14 3 45 25 41 40 41 40 -2z m-290 2 c15 -13 36 -28 46 -35 18 -11
17 -12 -6 -12 -30 -1 -40 6 -63 42 -21 33 -14 34 23 5z m-374 -91 c7 -7 -93
-30 -108 -24 -19 7 51 35 79 32 13 -1 26 -5 29 -8z m395 -33 c11 -10 18 -19
16 -21 -5 -4 -87 36 -87 42 0 11 54 -5 71 -21z m-423 -53 c3 -8 -1 -12 -9 -9
-7 2 -15 10 -17 17 -3 8 1 12 9 9 7 -2 15 -10 17 -17z m-152 -119 c24 -18 41
-62 26 -62 -10 0 -72 66 -72 75 0 11 26 3 46 -13z m124 -146 c22 -11 47 -36
63 -64 15 -26 35 -58 45 -72 16 -24 16 -25 -3 -10 -10 8 -37 32 -60 53 -22 21
-52 46 -67 55 -18 10 -28 25 -28 40 0 13 3 22 8 20 4 -2 23 -12 42 -22z m628
-11 c3 -3 2 -8 -1 -12 -4 -3 -22 1 -40 11 l-32 17 34 -6 c19 -3 37 -7 39 -10z
m-165 -9 c36 -15 67 -42 67 -58 0 -6 -15 1 -34 16 -19 14 -39 26 -44 26 -5 0
-15 7 -22 15 -15 19 -9 19 33 1z m-113 -118 c0 -18 -2 -20 -9 -8 -6 8 -7 18
-5 22 9 14 14 9 14 -14z m-142 -11 c12 -14 5 -57 -8 -57 -10 0 -20 26 -20 51
0 22 13 25 28 6z m325 -158 c-8 -8 -14 -6 -22 9 -13 25 -2 37 18 17 11 -11 12
-18 4 -26z m77 -14 c0 -8 -4 -15 -10 -15 -5 0 -10 7 -10 15 0 8 5 15 10 15 6
0 10 -7 10 -15z m-54 -36 c3 -6 1 -16 -5 -22 -9 -9 -14 -8 -21 3 -9 15 -4 30
10 30 5 0 12 -5 16 -11z"/>
<path d="M149 4272 c5 -10 17 -24 25 -32 13 -10 16 -10 16 1 -1 19 -25 49 -39
49 -8 0 -9 -5 -2 -18z"/>
<path d="M6281 4216 c-18 -32 -11 -55 22 -80 28 -21 29 -21 43 -1 15 20 11 69
-8 93 -16 19 -44 14 -57 -12z"/>
<path d="M6786 4194 c-8 -20 1 -34 20 -34 17 0 17 10 0 33 -12 16 -14 16 -20
1z"/>
<path d="M5772 4144 c2 -15 9 -29 16 -32 10 -3 13 4 10 24 -2 15 -9 29 -16 32
-10 3 -13 -4 -10 -24z"/>
<path d="M5835 4140 c-3 -5 1 -10 9 -10 8 0 18 5 21 10 3 6 -1 10 -9 10 -8 0
-18 -4 -21 -10z"/>
<path d="M6167 4114 c-12 -13 23 -61 53 -74 33 -14 56 -5 27 11 -9 6 -24 23
-32 39 -15 28 -34 38 -48 24z"/>
<path d="M6800 4095 c0 -24 33 -82 37 -68 6 17 -16 83 -28 83 -5 0 -9 -7 -9
-15z"/>
<path d="M80 4055 c7 -8 17 -12 22 -9 6 4 5 10 -3 15 -22 14 -33 10 -19 -6z"/>
<path d="M5635 4029 c-4 -6 -5 -13 -2 -16 7 -7 27 6 27 18 0 12 -17 12 -25 -2z"/>
<path d="M70 4009 c0 -11 5 -17 10 -14 6 3 10 13 10 21 0 8 -4 14 -10 14 -5 0
-10 -9 -10 -21z"/>
<path d="M6440 3956 c0 -29 36 -47 79 -40 50 8 44 17 -26 38 -42 12 -53 12
-53 2z"/>
<path d="M6 3948 c12 -22 47 -58 56 -58 15 0 8 17 -17 44 -25 27 -52 36 -39
14z"/>
<path d="M6615 3908 c-6 -33 -4 -44 10 -54 16 -12 15 -13 -2 -23 -12 -6 -25
-6 -34 0 -21 13 -39 11 -39 -6 0 -18 78 -101 86 -92 4 4 1 13 -6 22 -7 8 -8
15 -2 15 5 0 15 -7 22 -15 18 -22 38 -19 64 10 29 31 38 32 35 3 -2 -13 1 -34
5 -47 6 -18 10 -21 17 -10 12 19 1 70 -21 94 -10 11 -21 34 -25 52 -7 33 -65
93 -89 93 -9 0 -17 -16 -21 -42z"/>
<path d="M5655 3860 c3 -5 10 -10 16 -10 5 0 9 5 9 10 0 6 -7 10 -16 10 -8 0
-12 -4 -9 -10z"/>
<path d="M5685 3780 c3 -5 10 -10 16 -10 5 0 9 5 9 10 0 6 -7 10 -16 10 -8 0
-12 -4 -9 -10z"/>
<path d="M5690 3730 c0 -19 3 -21 12 -12 9 9 9 15 0 24 -9 9 -12 7 -12 -12z"/>
<path d="M6542 3722 c10 -27 9 -35 -15 -71 l-27 -41 41 -20 c23 -12 47 -19 55
-16 31 12 1 119 -44 160 -21 18 -21 18 -10 -12z"/>
<path d="M5740 3719 c0 -8 7 -24 15 -35 11 -15 14 -16 15 -3 0 8 -7 24 -15 35
-11 15 -14 16 -15 3z"/>
<path d="M2873 3706 c4 -14 57 -21 57 -8 0 5 -14 12 -30 14 -19 3 -29 1 -27
-6z"/>
<path d="M100 3681 c0 -6 5 -13 10 -16 6 -3 10 1 10 9 0 9 -4 16 -10 16 -5 0
-10 -4 -10 -9z"/>
<path d="M3030 3656 c0 -8 5 -18 10 -21 6 -3 10 3 10 14 0 12 -4 21 -10 21 -5
0 -10 -6 -10 -14z"/>
<path d="M4785 3481 c-7 -13 17 -24 40 -19 9 1 16 8 16 13 0 14 -48 19 -56 6z"/>
<path d="M6850 3461 c0 -12 7 -38 15 -58 11 -26 19 -33 26 -26 13 13 -4 75
-27 93 -11 10 -14 9 -14 -9z"/>
<path d="M4520 3350 c0 -5 5 -10 10 -10 6 0 10 -9 10 -20 0 -11 5 -20 10 -20
11 0 13 20 4 44 -7 17 -34 22 -34 6z"/>
<path d="M3267 3303 c-13 -13 -7 -21 13 -16 11 3 20 9 20 14 0 10 -24 12 -33
2z"/>
<path d="M144 3159 c6 -79 11 -92 21 -59 6 18 12 21 37 16 25 -5 29 -3 24 10
-3 9 -6 20 -6 24 0 13 -60 80 -72 80 -6 0 -8 -27 -4 -71z"/>
<path d="M936 3135 c-19 -19 -21 -59 -5 -105 l12 -32 13 32 c32 75 19 143 -20
105z"/>
<path d="M6950 3051 c0 -12 28 -22 35 -12 3 5 -2 12 -11 15 -21 8 -24 8 -24
-3z"/>
<path d="M172 2993 c2 -20 9 -29 26 -31 24 -4 28 9 12 39 -17 30 -42 24 -38
-8z"/>
<path d="M1077 2892 c-19 -21 -22 -32 -7 -32 10 0 34 39 27 46 -2 2 -11 -4
-20 -14z"/>
<path d="M505 2830 c18 -20 45 -27 45 -12 0 15 -24 32 -44 32 -18 0 -19 -1 -1
-20z"/>
<path d="M1040 2806 c0 -14 5 -28 10 -31 6 -3 10 5 10 19 0 14 -4 28 -10 31
-6 3 -10 -5 -10 -19z"/>
<path d="M3811 2683 c1 -39 15 -73 22 -53 9 25 2 73 -11 78 -8 2 -12 -7 -11
-25z"/>
<path d="M3890 2673 c0 -12 5 -25 11 -28 17 -11 18 -2 4 25 -14 24 -14 24 -15
3z"/>
<path d="M1810 2535 c0 -8 4 -15 9 -15 5 0 11 7 15 15 3 9 0 15 -9 15 -8 0
-15 -7 -15 -15z"/>
<path d="M1800 2456 c-6 -9 -10 -21 -8 -28 3 -8 9 -4 17 10 15 28 9 39 -9 18z"/>
<path d="M6780 2442 c0 -5 10 -17 21 -28 22 -19 22 -19 10 3 -12 24 -31 39
-31 25z"/>
<path d="M6187 2343 c-4 -6 0 -16 8 -23 21 -17 28 -8 11 15 -8 11 -15 14 -19
8z"/>
<path d="M3520 2092 c0 -26 10 -52 20 -52 5 0 5 14 0 31 -12 40 -20 49 -20 21z"/>
<path d="M665 2080 c3 -5 11 -10 16 -10 6 0 7 5 4 10 -3 6 -11 10 -16 10 -6 0
-7 -4 -4 -10z"/>
<path d="M310 2025 c-11 -13 -9 -15 15 -15 16 0 25 5 23 12 -7 19 -24 20 -38
3z"/>
<path d="M5370 1994 c0 -8 5 -12 10 -9 6 3 10 10 10 16 0 5 -4 9 -10 9 -5 0
-10 -7 -10 -16z"/>
<path d="M5675 1963 c-34 -8 -37 -19 -11 -37 15 -9 26 -23 26 -30 0 -18 60
-76 85 -82 11 -2 42 7 69 21 27 14 60 25 72 25 13 0 35 5 50 10 l27 11 -27 28
c-16 17 -49 35 -79 43 -51 15 -173 21 -212 11z"/>
<path d="M1816 1652 c-3 -6 5 -23 19 -39 16 -18 24 -23 24 -13 1 22 -35 65
-43 52z"/>
<path d="M1787 1563 c-4 -3 0 -15 9 -25 12 -13 14 -21 6 -31 -7 -7 -7 -18 -2
-27 7 -12 13 -12 37 -1 25 12 26 14 10 25 -9 7 -17 18 -17 23 0 14 -35 44 -43
36z"/>
<path d="M6297 1395 c9 -19 20 -35 25 -35 4 0 0 16 -9 35 -9 19 -20 35 -25 35
-4 0 0 -16 9 -35z"/>
<path d="M930 1401 c0 -11 26 -22 34 -14 12 12 5 23 -14 23 -11 0 -20 -4 -20
-9z"/>
<path d="M1330 1125 c0 -18 19 -40 26 -32 4 4 0 15 -9 24 -9 10 -17 13 -17 8z"/>
<path d="M5741 1107 c9 -21 56 -57 73 -57 14 0 4 20 -23 49 -36 38 -66 43 -50
8z"/>
<path d="M1652 1058 c2 -6 10 -14 16 -16 7 -2 10 2 6 12 -7 18 -28 22 -22 4z"/>
<path d="M1584 1025 c-7 -17 4 -37 17 -30 12 8 12 45 -1 45 -6 0 -13 -7 -16
-15z"/>
<path d="M1640 1011 c0 -11 5 -23 10 -26 6 -4 10 5 10 19 0 14 -4 26 -10 26
-5 0 -10 -9 -10 -19z"/>
<path d="M1346 972 c-3 -6 1 -15 8 -21 8 -7 17 -8 20 -3 3 6 -1 15 -8 21 -8 7
-17 8 -20 3z"/>
<path d="M1426 956 c3 -8 12 -17 21 -20 11 -5 13 -2 9 10 -3 8 -6 18 -6 20 0
2 -7 4 -15 4 -8 0 -12 -6 -9 -14z"/>
<path d="M1490 871 c0 -26 10 -51 21 -51 10 0 12 31 3 54 -9 22 -24 20 -24 -3z"/>
<path d="M1640 879 c0 -6 4 -19 10 -29 8 -16 14 -17 39 -7 l29 11 -23 18 c-26
20 -55 24 -55 7z"/>
<path d="M1810 840 c0 -13 41 -50 57 -50 18 0 16 6 -12 35 -27 26 -45 32 -45
15z"/>
<path d="M1587 768 c-7 -20 11 -60 25 -55 18 6 8 67 -11 67 -5 0 -11 -6 -14
-12z"/>
<path d="M1707 713 c-4 -6 2 -18 13 -28 23 -21 27 -8 7 20 -8 11 -16 14 -20 8z"/>
<path d="M4290 64 c0 -11 7 -29 15 -40 14 -19 14 -19 15 2 0 11 -7 29 -15 40
-14 19 -14 19 -15 -2z"/>
</g>
</svg>